P3 64 64 255

# y = 0
64 64 64
64 64 64
64 64 64
64 64 64
64 64 64
64 64 64
64 64 64
64 64 64
64 64 64
64 64 64
64 64 64
64 64 64
64 64 64
64 64 64
64 64 64
64 64 64
64 64 64
64 64 64
64 64 64
64 64 64
64 64 64
64 64 64
64 64 64
64 64 64
64 64 64
64 64 64
64 64 64
64 64 64
64 64 64
64 64 64
64 64 64
64 64 64
64 64 64
64 64 64
64 64 64
64 64 64
64 64 64
64 64 64
64 64 64
64 64 64
64 64 64
64 64 64
64 64 64
64 64 64
64 64 64
64 64 64
64 64 64
64 64 64
64 64 64
64 64 64
64 64 64
64 64 64
64 64 64
64 64 64
64 64 64
64 64 64
64 64 64
64 64 64
64 64 64
64 64 64
64 64 64
64 64 64
64 64 64
64 64 64

# y = 1
64 64 64
64 64 64
64 64 64
64 64 64
64 64 64
64 64 64
64 64 64
64 64 64
64 64 64
64 64 64
64 64 64
64 64 64
64 64 64
64 64 64
64 64 64
64 64 64
64 64 64
64 64 64
64 64 64
64 64 64
64 64 64
64 64 64
64 64 64
64 64 64
64 64 64
64 64 64
64 64 64
64 64 64
64 64 64
64 64 64
64 64 64
64 64 64
64 64 64
64 64 64
64 64 64
64 64 64
64 64 64
64 64 64
64 64 64
64 64 64
64 64 64
64 64 64
64 64 64
64 64 64
64 64 64
64 64 64
64 64 64
64 64 64
64 64 64
64 64 64
64 64 64
64 64 64
64 64 64
64 64 64
64 64 64
64 64 64
64 64 64
64 64 64
64 64 64
64 64 64
64 64 64
64 64 64
64 64 64
64 64 64

# y = 2
64 64 64
64 64 64
171 82 82
22 22 22
21 21 21
22 22 22
22 22 22
23 23 23
23 23 23
22 22 22
25 25 25
25 25 25
25 25 25
25 25 25
27 27 27
27 27 27
28 28 28
29 29 29
33 33 33
28 28 28
31 31 31
34 34 34
35 35 35
37 37 37
39 39 39
39 39 39
50 50 50
44 44 44
57 57 57
72 72 72
101 101 101
149 149 149
165 165 165
102 102 102
85 85 85
57 57 57
54 54 54
42 42 42
41 41 41
40 40 40
37 37 37
36 36 36
32 32 32
31 31 31
32 32 32
29 29 29
30 30 30
28 28 28
27 27 27
25 25 25
25 25 25
26 26 26
25 25 25
24 24 24
22 22 22
22 22 22
23 23 23
23 23 23
22 22 22
22 22 22
21 21 21
124 170 170
110 150 150
64 64 64

# y = 3
64 64 64
64 64 64
149 72 72
169 81 81
22 22 22
20 20 20
22 22 22
22 22 22
22 22 22
22 22 22
24 24 24
24 24 24
23 23 23
25 25 25
28 28 28
25 25 25
28 28 28
29 29 29
29 29 29
32 32 32
31 31 31
33 33 33
33 33 33
38 38 38
39 39 39
43 43 43
46 46 46
51 51 51
59 59 59
77 77 77
89 89 89
135 135 135
184 184 184
79 79 79
58 58 58
54 54 54
47 47 47
48 48 48
43 43 43
41 41 41
38 38 38
34 34 34
32 32 32
33 33 33
32 32 32
27 27 27
29 29 29
27 27 27
27 27 27
28 28 28
25 25 25
24 24 24
23 23 23
24 24 24
23 23 23
22 22 22
21 21 21
21 21 21
21 21 21
21 21 21
128 175 175
111 152 152
108 148 148
64 64 64

# y = 4
64 64 64
64 64 64
146 70 70
154 74 74
165 79 79
21 21 21
21 21 21
22 22 22
21 21 21
23 23 23
22 22 22
23 23 23
25 25 25
26 26 26
26 26 26
27 27 27
28 28 28
28 28 28
28 28 28
28 28 28
32 32 32
33 33 33
32 32 32
38 38 38
39 39 39
44 44 44
45 45 45
49 49 49
55 55 55
54 54 54
93 93 93
136 136 136
128 128 128
86 86 86
75 75 75
53 53 53
53 53 53
46 46 46
41 41 41
39 39 39
37 37 37
34 34 34
32 32 32
32 32 32
29 29 29
28 28 28
27 27 27
29 29 29
26 26 26
25 25 25
26 26 26
22 22 22
23 23 23
23 23 23
23 23 23
22 22 22
22 22 22
23 23 23
20 20 20
121 166 166
114 156 156
103 142 142
104 143 143
64 64 64

# y = 5
64 64 64
64 64 64
143 69 69
141 68 68
154 74 74
160 77 77
21 21 21
22 22 22
22 22 22
23 23 23
22 22 22
23 23 23
24 24 24
24 24 24
23 23 23
25 25 25
26 26 26
27 27 27
27 27 27
26 26 26
31 31 31
33 33 33
34 34 34
36 36 36
37 37 37
41 41 41
43 43 43
49 49 49
64 64 64
73 73 73
86 86 86
144 144 144
128 128 128
76 76 76
71 71 71
48 48 48
52 52 52
39 39 39
44 44 44
37 37 37
35 35 35
34 34 34
30 30 30
28 28 28
29 29 29
28 28 28
27 27 27
25 25 25
26 26 26
26 26 26
25 25 25
23 23 23
23 23 23
22 22 22
21 21 21
20 20 20
21 21 21
22 22 22
115 158 158
110 151 151
108 148 148
102 139 139
105 144 144
64 64 64

# y = 6
64 64 64
64 64 64
140 67 67
141 68 68
139 67 67
137 66 66
154 74 74
21 21 21
20 20 20
21 21 21
20 20 20
24 24 24
22 22 22
24 24 24
24 24 24
25 25 25
26 26 26
26 26 26
28 28 28
27 27 27
31 31 31
35 35 35
31 31 31
34 34 34
37 37 37
38 38 38
42 42 42
47 47 47
47 47 47
66 66 66
88 88 88
145 145 145
133 133 133
105 105 105
69 69 69
48 48 48
46 46 46
47 47 47
41 41 41
35 35 35
35 35 35
33 33 33
32 32 32
29 29 29
28 28 28
27 27 27
26 26 26
24 24 24
26 26 26
22 22 22
23 23 23
23 23 23
22 22 22
23 23 23
21 21 21
21 21 21
21 21 21
119 164 164
108 148 148
108 148 148
96 132 132
100 137 137
104 142 142
64 64 64

# y = 7
64 64 64
64 64 64
138 66 66
142 68 68
138 66 66
133 64 64
142 68 68
163 78 78
20 20 20
20 20 20
22 22 22
22 22 22
23 23 23
23 23 23
24 24 24
24 24 24
25 25 25
25 25 25
25 25 25
25 25 25
28 28 28
29 29 29
33 33 33
34 34 34
35 35 35
38 38 38
255 255 255
255 255 255
255 255 255
255 255 255
255 255 255
255 255 255
255 255 255
255 255 255
255 255 255
255 255 255
255 255 255
255 255 255
37 37 37
36 36 36
34 34 34
32 32 32
31 31 31
28 28 28
29 29 29
25 25 25
26 26 26
27 27 27
22 22 22
23 23 23
22 22 22
22 22 22
22 22 22
20 20 20
20 20 20
21 21 21
119 163 163
105 143 143
99 136 136
100 137 137
100 137 137
96 132 132
100 137 137
64 64 64

# y = 8
64 64 64
64 64 64
128 61 61
139 66 66
134 64 64
133 64 64
136 65 65
136 65 65
152 73 73
20 20 20
19 19 19
22 22 22
21 21 21
22 22 22
22 22 22
23 23 23
24 24 24
24 24 24
26 26 26
26 26 26
28 28 28
28 28 28
30 30 30
32 32 32
35 35 35
39 39 39
255 255 255
255 255 255
255 255 255
255 255 255
255 255 255
255 255 255
255 255 255
255 255 255
255 255 255
255 255 255
255 255 255
255 255 255
38 38 38
36 36 36
34 34 34
33 33 33
27 27 27
26 26 26
26 26 26
26 26 26
24 24 24
24 24 24
24 24 24
23 23 23
22 22 22
21 21 21
21 21 21
21 21 21
19 19 19
113 155 155
106 145 145
99 136 136
96 132 132
96 132 132
95 130 130
104 142 142
104 142 142
64 64 64

# y = 9
64 64 64
64 64 64
135 65 65
142 68 68
127 61 61
128 62 62
126 61 61
131 63 63
136 65 65
154 74 74
19 19 19
20 20 20
20 20 20
21 21 21
21 21 21
22 22 22
25 25 25
24 24 24
25 25 25
28 28 28
26 26 26
29 29 29
31 31 31
32 32 32
33 33 33
36 36 36
255 255 255
255 255 255
255 255 255
255 255 255
255 255 255
255 255 255
255 255 255
255 255 255
255 255 255
255 255 255
255 255 255
255 255 255
39 39 39
34 34 34
32 32 32
28 28 28
28 28 28
27 27 27
26 26 26
25 25 25
26 26 26
24 24 24
22 22 22
22 22 22
21 21 21
21 21 21
20 20 20
19 19 19
117 160 160
103 142 142
93 128 128
94 129 129
92 127 127
95 130 130
99 136 136
100 138 138
97 134 134
64 64 64

# y = 10
64 64 64
64 64 64
142 68 68
133 64 64
128 61 61
137 66 66
124 60 60
126 60 60
126 61 61
133 64 64
153 73 73
19 19 19
19 19 19
20 20 20
21 21 21
21 21 21
23 23 23
23 23 23
24 24 24
25 25 25
26 26 26
26 26 26
27 27 27
29 29 29
34 34 34
39 39 39
39 39 39
255 255 255
255 255 255
255 255 255
255 255 255
255 255 255
255 255 255
255 255 255
255 255 255
255 255 255
255 255 255
37 37 37
36 36 36
33 33 33
31 31 31
28 28 28
26 26 26
27 27 27
24 24 24
24 24 24
22 22 22
23 23 23
22 22 22
23 23 23
21 21 21
20 20 20
19 19 19
117 160 160
102 140 140
92 126 126
97 134 134
92 126 126
96 132 132
98 134 134
96 132 132
102 140 140
101 139 139
64 64 64

# y = 11
64 64 64
64 64 64
129 62 62
132 63 63
133 64 64
131 63 63
126 61 61
134 64 64
123 59 59
121 58 58
133 64 64
159 76 76
19 19 19
19 19 19
21 21 21
22 22 22
21 21 21
23 23 23
23 23 23
23 23 23
24 24 24
25 25 25
29 29 29
28 28 28
32 32 32
36 36 36
39 39 39
42 42 42
39 39 39
43 43 43
44 44 44
44 44 44
49 49 49
42 42 42
40 40 40
43 43 43
40 40 40
40 40 40
34 34 34
31 31 31
30 30 30
27 27 27
26 26 26
25 25 25
24 24 24
23 23 23
23 23 23
22 22 22
20 20 20
21 21 21
19 19 19
19 19 19
114 157 157
96 131 131
86 118 118
91 125 125
90 124 124
96 132 132
97 133 133
92 126 126
97 133 133
94 129 129
99 136 136
64 64 64

# y = 12
64 64 64
64 64 64
125 60 60
125 60 60
130 62 62
130 62 62
123 59 59
125 60 60
127 61 61
127 61 61
116 55 55
122 58 58
160 77 77
20 20 20
20 20 20
21 21 21
21 21 21
21 21 21
21 21 21
24 24 24
25 25 25
24 24 24
29 29 29
29 29 29
31 31 31
33 33 33
34 34 34
40 40 40
37 37 37
39 39 39
41 41 41
38 38 38
38 38 38
43 43 43
35 35 35
40 40 40
37 37 37
36 36 36
33 33 33
32 32 32
29 29 29
27 27 27
26 26 26
25 25 25
23 23 23
21 21 21
22 22 22
21 21 21
20 20 20
19 19 19
19 19 19
118 162 162
94 129 129
86 119 119
93 127 127
88 120 120
92 126 126
97 133 133
95 130 130
92 126 126
96 132 132
99 135 135
98 134 134
64 64 64

# y = 13
64 64 64
64 64 64
130 62 62
133 64 64
132 63 63
127 61 61
130 62 62
121 58 58
128 61 61
119 57 57
118 56 56
120 58 58
117 56 56
156 75 75
19 19 19
18 18 18
22 22 22
21 21 21
21 21 21
22 22 22
23 23 23
27 27 27
27 27 27
28 28 28
29 29 29
30 30 30
31 31 31
32 32 32
32 32 32
33 33 33
36 36 36
33 33 33
36 36 36
32 32 32
37 37 37
33 33 33
31 31 31
33 33 33
33 33 33
31 31 31
30 30 30
26 26 26
24 24 24
24 24 24
24 24 24
22 22 22
22 22 22
20 20 20
20 20 20
19 19 19
110 151 151
89 122 122
85 117 117
85 117 117
90 124 124
87 120 120
89 122 122
95 130 130
93 127 127
92 127 127
95 130 130
97 132 132
91 125 125
64 64 64

# y = 14
64 64 64
64 64 64
138 66 66
123 59 59
132 63 63
132 63 63
132 63 63
125 60 60
124 59 59
122 58 58
115 55 55
115 55 55
114 55 55
124 59 59
152 73 73
19 19 19
19 19 19
20 20 20
20 20 20
22 22 22
23 23 23
24 24 24
26 26 26
27 27 27
28 28 28
29 29 29
26 26 26
29 29 29
30 30 30
30 30 30
31 31 31
30 30 30
30 30 30
30 30 30
31 31 31
31 31 31
31 31 31
29 29 29
29 29 29
29 29 29
28 28 28
26 26 26
24 24 24
24 24 24
21 21 21
21 21 21
20 20 20
19 19 19
19 19 19
118 162 162
88 120 120
88 120 120
86 118 118
86 119 119
89 122 122
89 122 122
92 127 127
88 121 121
93 128 128
89 123 123
92 126 126
105 144 144
96 132 132
64 64 64

# y = 15
64 64 64
64 64 64
138 66 66
132 63 63
130 62 62
129 62 62
133 64 64
121 58 58
120 57 57
125 60 60
126 60 60
119 57 57
109 52 52
114 55 55
113 54 54
150 72 72
18 18 18
20 20 20
20 20 20
20 20 20
22 22 22
23 23 23
24 24 24
26 26 26
26 26 26
27 27 27
26 26 26
27 27 27
26 26 26
28 28 28
28 28 28
28 28 28
29 29 29
30 30 30
27 27 27
27 27 27
27 27 27
27 27 27
28 28 28
25 25 25
27 27 27
26 26 26
24 24 24
21 21 21
21 21 21
20 20 20
19 19 19
19 19 19
107 147 147
87 119 119
84 116 116
83 114 114
85 117 117
90 124 124
84 115 115
91 126 126
90 123 123
94 129 129
96 131 131
91 125 125
93 127 127
94 129 129
101 138 138
64 64 64

# y = 16
64 64 64
64 64 64
125 60 60
134 64 64
119 57 57
124 59 59
123 59 59
124 59 59
127 61 61
121 58 58
118 56 56
112 54 54
112 54 54
111 53 53
114 54 54
107 51 51
179 179 179
185 185 185
189 189 189
187 187 187
184 184 184
187 187 187
193 193 193
202 202 202
189 189 189
192 192 192
202 202 202
206 206 206
197 197 197
199 199 199
191 191 191
190 190 190
205 205 205
201 201 201
191 191 191
200 200 200
199 199 199
197 197 197
187 187 187
196 196 196
198 198 198
201 201 201
194 194 194
189 189 189
193 193 193
185 185 185
188 188 188
185 185 185
78 107 107
80 109 109
82 112 112
83 113 113
83 113 113
85 116 116
84 116 116
91 125 125
92 127 127
89 122 122
89 123 123
93 128 128
87 119 119
100 138 138
96 131 131
64 64 64

# y = 17
64 64 64
64 64 64
137 66 66
129 62 62
128 62 62
127 61 61
117 56 56
120 58 58
121 58 58
114 55 55
114 55 55
109 52 52
107 51 51
104 50 50
110 53 53
109 52 52
161 161 161
166 166 166
165 165 165
166 166 166
164 164 164
173 173 173
172 172 172
173 173 173
165 165 165
175 175 175
174 174 174
177 177 177
170 170 170
183 183 183
167 167 167
182 182 182
177 177 177
179 179 179
180 180 180
173 173 173
163 163 163
170 170 170
163 163 163
169 169 169
171 171 171
171 171 171
161 161 161
166 166 166
171 171 171
168 168 168
168 168 168
163 163 163
82 112 112
79 109 109
77 106 106
77 106 106
81 112 112
81 111 111
90 124 124
90 124 124
91 125 125
92 126 126
95 130 130
94 130 130
101 138 138
92 126 126
91 125 125
64 64 64

# y = 18
64 64 64
64 64 64
130 62 62
128 61 61
128 61 61
126 60 60
130 62 62
127 61 61
117 56 56
120 58 58
118 56 56
108 52 52
111 53 53
105 50 50
108 52 52
104 50 50
160 160 160
166 166 166
161 161 161
159 159 159
165 165 165
164 164 164
165 165 165
163 163 163
169 169 169
170 170 170
170 170 170
168 168 168
255 204 190
200 155 145
255 199 186
251 203 192
211 167 157
255 208 194
189 147 138
205 159 149
173 173 173
169 169 169
168 168 168
171 171 171
161 161 161
169 169 169
162 162 162
168 168 168
171 171 171
160 160 160
164 164 164
152 152 152
73 100 100
73 100 100
81 111 111
83 113 113
82 113 113
86 118 118
88 121 121
89 122 122
85 117 117
89 122 122
94 128 128
93 127 127
95 130 130
94 129 129
102 140 140
64 64 64

# y = 19
64 64 64
64 64 64
131 63 63
128 61 61
129 62 62
121 58 58
128 61 61
118 57 57
114 54 54
114 55 55
118 57 57
112 54 54
109 52 52
103 50 50
99 47 47
103 49 49
164 164 164
159 159 159
165 165 165
160 160 160
166 166 166
169 169 169
167 167 167
167 167 167
164 164 164
169 169 169
226 173 160
229 175 163
255 203 189
214 165 154
255 202 188
222 184 176
255 219 207
255 208 195
241 185 173
233 178 166
241 185 172
255 199 185
154 154 154
167 167 167
156 156 156
167 167 167
160 160 160
165 165 165
161 161 161
171 171 171
160 160 160
163 163 163
73 101 101
75 103 103
78 107 107
77 106 106
81 112 112
89 122 122
85 116 116
89 122 122
89 122 122
91 125 125
86 118 118
88 121 121
99 135 135
95 130 130
99 136 136
64 64 64

# y = 20
64 64 64
64 64 64
135 65 65
121 58 58
130 62 62
122 58 58
121 58 58
123 59 59
114 55 55
114 55 55
118 57 57
115 55 55
111 53 53
111 53 53
104 50 50
106 51 51
156 156 156
159 159 159
160 160 160
156 156 156
162 162 162
158 158 158
164 164 164
155 155 155
252 192 178
255 202 188
252 192 179
231 176 164
251 191 178
255 213 198
246 189 177
246 193 181
255 206 195
236 183 172
255 202 188
184 142 132
240 183 170
244 186 173
251 191 178
255 195 181
169 169 169
163 163 163
158 158 158
163 163 163
161 161 161
166 166 166
159 159 159
160 160 160
73 100 100
80 110 110
76 105 105
80 110 110
85 117 117
87 119 119
83 114 114
81 112 112
90 124 124
93 127 127
90 123 123
95 130 130
91 125 125
100 137 137
95 131 131
64 64 64

# y = 21
64 64 64
64 64 64
140 67 67
126 60 60
122 58 58
125 60 60
125 60 60
126 60 60
127 61 61
116 55 55
112 54 54
105 50 50
105 50 50
106 51 51
103 49 49
101 48 48
160 160 160
157 157 157
154 154 154
168 168 168
163 163 163
161 161 161
166 166 166
138 105 97
199 152 141
252 192 179
241 184 171
236 180 168
255 195 181
255 202 188
255 202 188
251 198 187
223 180 171
250 192 179
234 180 168
186 143 133
234 178 166
228 174 162
241 184 171
180 137 128
132 100 93
166 166 166
163 163 163
167 167 167
165 165 165
161 161 161
162 162 162
155 155 155
71 97 97
74 102 102
83 114 114
85 117 117
77 105 105
81 111 111
84 115 115
87 119 119
88 121 121
88 121 121
86 118 118
90 123 123
88 120 120
89 123 123
88 121 121
64 64 64

# y = 22
64 64 64
64 64 64
124 59 59
124 59 59
127 61 61
128 61 61
118 57 57
116 55 55
110 53 53
116 56 56
119 57 57
115 55 55
114 55 55
105 50 50
101 48 48
100 48 48
166 166 166
147 147 147
150 150 150
163 163 163
153 153 153
157 157 157
138 105 97
195 149 138
243 185 172
246 187 174
226 172 160
216 165 153
255 195 182
250 191 178
193 150 140
255 202 189
255 203 190
255 206 192
218 167 156
251 191 178
255 197 183
226 172 160
242 185 172
238 181 168
245 186 173
137 104 96
161 161 161
157 157 157
161 161 161
160 160 160
155 155 155
155 155 155
74 102 102
74 102 102
73 100 100
82 113 113
80 110 110
83 113 113
85 116 116
85 116 116
87 119 119
87 120 120
86 118 118
87 119 119
94 129 129
95 130 130
98 135 135
64 64 64

# y = 23
64 64 64
64 64 64
135 65 65
127 61 61
129 62 62
122 58 58
123 59 59
117 56 56
121 58 58
117 56 56
112 54 54
112 54 54
108 52 52
107 51 51
103 49 49
98 47 47
154 154 154
150 150 150
164 164 164
156 156 156
161 161 161
136 103 96
255 184 174
255 199 188
247 188 175
211 160 149
208 159 148
236 180 167
239 182 170
218 167 155
211 163 152
255 204 192
255 216 202
212 164 153
210 161 150
232 177 165
252 192 179
253 193 179
255 196 182
239 182 169
244 243 237
239 239 232
134 102 94
158 158 158
159 159 159
158 158 158
157 157 157
158 158 158
71 98 98
79 109 109
76 104 104
76 104 104
78 107 107
82 113 113
86 119 119
86 117 117
89 122 122
93 128 128
89 122 122
91 125 125
90 123 123
93 128 128
95 130 130
64 64 64

# y = 24
64 64 64
64 64 64
123 59 59
123 59 59
123 59 59
123 59 59
128 62 62
120 57 57
122 58 58
110 52 52
110 52 52
110 52 52
108 52 52
106 51 51
97 47 47
103 49 49
144 144 144
159 159 159
152 152 152
164 164 164
255 207 195
255 187 177
246 154 146
255 187 177
255 206 193
211 160 149
224 171 159
233 177 165
209 159 148
255 195 182
244 186 174
204 160 151
253 197 185
255 201 187
243 186 173
232 177 165
255 194 181
231 176 163
224 171 159
255 255 253
255 255 248
255 255 252
249 242 235
255 255 253
156 156 156
158 158 158
152 152 152
153 153 153
71 98 98
75 103 103
75 104 104
79 108 108
79 108 108
83 115 115
84 115 115
85 117 117
83 114 114
86 117 117
88 121 121
89 122 122
88 121 121
88 120 120
92 126 126
64 64 64

# y = 25
64 64 64
64 64 64
126 60 60
123 59 59
123 59 59
124 60 60
116 55 55
120 58 58
119 57 57
110 53 53
111 53 53
111 53 53
106 51 51
99 47 47
103 49 49
97 47 47
153 153 153
165 165 165
144 144 144
160 160 160
255 194 183
255 199 188
255 185 175
255 185 174
255 209 196
255 199 188
233 177 164
248 189 176
255 202 188
249 190 177
255 213 198
255 200 188
248 193 181
246 188 175
250 191 178
255 197 183
237 180 168
238 181 168
255 255 247
255 244 237
234 231 225
231 229 223
255 250 241
251 243 235
157 157 157
150 150 150
148 148 148
153 153 153
73 101 101
79 109 109
77 106 106
78 107 107
83 115 115
82 112 112
84 115 115
82 112 112
88 121 121
85 117 117
89 123 123
88 120 120
91 125 125
89 122 122
91 125 125
64 64 64

# y = 26
64 64 64
64 64 64
125 60 60
120 57 57
119 57 57
120 57 57
116 56 56
113 54 54
118 56 56
119 57 57
112 54 54
106 51 51
106 51 51
104 50 50
102 49 49
101 48 48
153 153 153
161 161 161
161 161 161
252 172 161
255 184 173
255 178 168
255 175 165
255 196 185
245 162 153
255 209 196
255 192 181
236 179 167
255 194 181
230 175 163
255 201 187
251 196 184
249 195 183
254 194 181
223 170 158
255 199 185
233 178 165
255 251 243
255 243 235
255 244 235
250 233 224
235 224 217
255 239 231
249 237 230
245 233 225
150 150 150
153 153 153
155 155 155
75 102 102
76 104 104
75 104 104
73 101 101
73 101 101
80 110 110
78 107 107
84 115 115
85 117 117
86 118 118
85 117 117
88 121 121
88 121 121
87 119 119
88 121 121
64 64 64

# y = 27
64 64 64
64 64 64
123 59 59
123 59 59
122 58 58
118 57 57
127 61 61
118 56 56
114 54 54
117 56 56
107 51 51
111 53 53
114 55 55
102 49 49
102 49 49
97 47 47
157 157 157
156 156 156
159 159 159
255 186 175
255 184 173
255 178 167
255 177 166
255 182 171
255 169 159
255 204 192
255 185 174
255 197 186
242 184 171
255 201 187
255 217 202
255 210 196
255 222 207
236 180 168
249 190 176
222 169 157
255 255 248
255 247 238
255 236 227
255 240 231
250 232 223
254 234 226
237 225 218
247 236 228
207 211 206
154 154 154
151 151 151
149 149 149
67 92 92
73 101 101
74 101 101
77 105 105
77 106 106
79 109 109
81 111 111
88 121 121
85 117 117
87 119 119
86 118 118
92 126 126
91 124 124
95 131 131
90 124 124
64 64 64

# y = 28
64 64 64
64 64 64
126 60 60
123 59 59
122 58 58
120 57 57
116 56 56
115 55 55
104 50 50
112 53 53
107 51 51
107 51 51
99 47 47
103 49 49
99 48 48
98 47 47
150 150 150
147 147 147
255 176 166
255 177 166
255 175 164
255 176 166
255 192 180
255 196 184
255 193 181
255 187 175
255 199 187
255 174 164
255 212 200
255 197 183
255 221 205
229 177 166
255 229 214
254 193 180
255 207 192
255 255 255
255 255 248
255 235 225
255 235 226
247 225 216
246 226 217
255 237 228
255 235 226
252 235 227
234 224 217
254 239 231
157 157 157
151 151 151
72 99 99
69 95 95
79 108 108
76 104 104
78 107 107
82 112 112
87 120 120
87 119 119
88 121 121
85 117 117
84 116 116
89 122 122
89 123 123
93 128 128
89 122 122
64 64 64

# y = 29
64 64 64
64 64 64
117 56 56
124 60 60
121 58 58
121 58 58
118 56 56
112 54 54
114 55 55
113 54 54
107 51 51
104 50 50
102 49 49
103 49 49
98 47 47
102 49 49
159 159 159
149 149 149
253 168 159
247 171 160
255 174 163
246 165 155
255 182 171
255 188 176
255 189 177
255 193 181
255 198 186
255 203 191
255 196 184
255 220 207
255 228 212
255 204 191
255 224 208
255 223 207
255 255 255
255 255 255
255 244 234
255 233 223
255 232 222
244 222 213
229 211 204
230 213 205
231 216 208
235 221 213
225 218 211
255 238 230
144 144 144
154 154 154
69 95 95
75 103 103
75 102 102
75 103 103
78 107 107
83 113 113
78 107 107
85 117 117
88 121 121
88 120 120
85 116 116
88 121 121
88 121 121
85 117 117
89 122 122
64 64 64

# y = 30
64 64 64
64 64 64
122 58 58
110 53 53
116 55 55
119 57 57
118 56 56
111 53 53
105 50 50
106 51 51
105 50 50
110 53 53
109 52 52
103 49 49
97 46 46
97 46 46
149 149 149
154 154 154
246 166 157
255 174 164
249 169 159
248 167 157
255 179 168
255 180 169
255 188 176
255 204 191
255 203 190
255 211 197
255 197 185
255 204 191
228 173 161
223 169 157
223 169 157
223 169 157
255 255 255
255 255 244
255 236 226
255 236 226
252 223 213
246 220 210
255 226 216
255 230 220
255 230 221
240 220 212
247 225 216
249 228 220
148 148 148
145 145 145
68 93 93
68 94 94
74 101 101
77 106 106
77 105 105
81 111 111
84 115 115
80 110 110
82 113 113
86 118 118
87 119 119
88 121 121
88 121 121
88 121 121
85 116 116
64 64 64

# y = 31
64 64 64
64 64 64
121 58 58
123 59 59
116 56 56
126 60 60
117 56 56
108 52 52
110 53 53
112 54 54
105 50 50
106 51 51
110 53 53
98 47 47
102 49 49
98 47 47
144 144 144
154 154 154
255 187 175
244 163 154
254 176 165
255 177 166
255 194 181
255 177 167
255 191 179
255 200 187
255 201 188
255 204 191
255 217 203
255 207 194
239 181 168
238 181 168
232 176 163
242 183 170
255 255 255
255 255 246
255 240 229
255 240 229
255 233 222
255 234 224
255 226 217
241 216 208
246 220 211
242 218 210
239 217 208
210 198 192
155 155 155
150 150 150
69 94 94
68 93 93
70 97 97
79 108 108
80 109 109
78 107 107
79 108 108
79 109 109
80 109 109
84 115 115
84 116 116
89 122 122
87 119 119
92 126 126
90 123 123
64 64 64

# y = 32
64 64 64
64 64 64
121 58 58
119 57 57
117 56 56
114 55 55
115 55 55
116 56 56
108 52 52
111 53 53
103 49 49
108 52 52
102 49 49
98 47 47
98 47 47
96 46 46
148 148 148
151 151 151
255 171 161
255 175 164
255 180 168
241 169 159
255 197 184
255 190 178
255 186 174
255 214 200
255 216 201
255 221 206
255 211 197
255 219 205
255 195 181
255 196 182
251 191 177
254 192 179
255 252 239
255 246 234
255 242 229
255 228 217
255 236 224
255 231 220
247 212 202
255 230 219
244 212 203
248 223 214
236 220 212
223 209 202
153 153 153
150 150 150
69 95 95
72 99 99
76 105 105
74 101 101
75 103 103
80 110 110
79 109 109
79 109 109
86 117 117
89 122 122
85 117 117
88 121 121
88 121 121
92 126 126
86 118 118
64 64 64

# y = 33
64 64 64
64 64 64
118 57 57
118 56 56
115 55 55
109 52 52
114 55 55
115 55 55
107 51 51
108 52 52
111 53 53
108 52 52
103 49 49
102 49 49
104 50 50
96 46 46
145 145 145
146 146 146
255 178 167
252 174 163
237 167 156
255 186 174
255 187 175
255 192 180
255 209 195
255 205 191
255 215 201
255 222 207
255 227 212
255 225 210
241 182 169
223 169 157
224 170 158
223 169 157
255 239 227
255 239 225
255 252 239
255 235 222
255 240 227
245 214 204
255 221 211
232 210 202
245 211 201
246 219 210
233 206 197
236 216 208
145 145 145
146 146 146
71 97 97
70 96 96
74 101 101
71 97 97
80 109 109
76 104 104
81 111 111
83 113 113
84 115 115
85 117 117
88 120 120
88 121 121
83 114 114
82 113 113
79 109 109
64 64 64

# y = 34
64 64 64
64 64 64
111 53 53
118 56 56
115 55 55
112 54 54
111 53 53
121 58 58
108 52 52
110 53 53
100 48 48
99 47 47
102 49 49
101 48 48
95 45 45
95 45 45
142 142 142
146 146 146
255 183 171
255 185 173
255 191 179
255 196 183
255 197 184
255 208 194
255 214 200
255 219 204
255 208 194
255 197 183
255 205 192
255 189 176
255 255 255
255 255 255
255 255 255
255 255 255
255 225 213
249 209 198
255 229 217
255 245 232
255 226 214
255 229 217
255 229 218
255 226 215
246 213 203
226 204 196
239 213 204
238 218 210
146 146 146
150 150 150
67 92 92
72 99 99
76 104 104
73 100 100
78 106 106
74 101 101
83 114 114
83 114 114
80 110 110
80 110 110
84 115 115
87 119 119
84 116 116
90 123 123
86 118 118
64 64 64

# y = 35
64 64 64
64 64 64
117 56 56
117 56 56
112 54 54
121 58 58
113 54 54
109 52 52
110 53 53
109 52 52
104 50 50
106 51 51
99 47 47
98 47 47
99 47 47
95 45 45
149 149 149
145 145 145
255 175 164
255 180 169
255 185 173
255 190 178
255 202 189
255 210 196
255 192 179
255 213 199
255 205 192
255 193 180
255 187 174
255 255 255
255 255 255
255 255 255
255 255 255
255 255 255
255 255 255
255 229 216
245 206 196
255 225 213
255 242 229
255 248 234
255 227 216
255 228 217
255 222 212
245 216 206
242 219 210
252 224 214
146 146 146
147 147 147
72 98 98
69 95 95
72 99 99
76 104 104
76 104 104
74 102 102
76 105 105
84 116 116
83 114 114
82 113 113
82 113 113
81 111 111
78 107 107
86 118 118
86 118 118
64 64 64

# y = 36
64 64 64
64 64 64
118 56 56
115 55 55
111 53 53
106 51 51
110 53 53
114 55 55
103 49 49
106 51 51
101 48 48
98 47 47
94 45 45
102 49 49
97 47 47
94 45 45
145 145 145
143 143 143
146 146 146
248 173 162
253 180 168
255 189 177
255 186 174
255 210 196
255 208 195
255 207 193
255 205 191
252 181 169
255 255 255
255 255 255
255 255 255
255 255 255
255 255 255
255 255 255
255 255 255
255 255 255
248 202 191
248 212 202
231 200 191
255 232 220
255 228 216
255 232 220
255 229 218
255 224 213
240 213 204
153 153 153
133 133 133
146 146 146
67 92 92
68 93 93
71 97 97
73 101 101
76 104 104
73 100 100
75 103 103
78 107 107
83 114 114
84 115 115
79 109 109
83 114 114
85 117 117
86 118 118
88 121 121
64 64 64

# y = 37
64 64 64
64 64 64
113 54 54
115 55 55
119 57 57
111 53 53
113 54 54
112 53 53
108 52 52
113 54 54
103 49 49
101 48 48
96 46 46
96 46 46
93 44 44
91 43 43
140 140 140
146 146 146
149 149 149
255 187 175
255 198 185
255 203 190
255 206 193
255 213 199
255 191 178
223 157 147
255 189 176
255 255 255
255 255 255
255 255 255
255 255 255
255 255 255
255 255 255
255 255 255
255 255 255
255 255 255
255 255 255
233 198 188
255 212 201
236 205 195
255 239 227
255 233 221
255 219 208
254 220 210
247 215 206
149 149 149
153 153 153
146 146 146
64 88 88
69 95 95
70 96 96
72 99 99
73 101 101
72 99 99
78 107 107
78 108 108
81 111 111
80 110 110
85 116 116
82 112 112
83 114 114
83 113 113
88 121 121
64 64 64

# y = 38
64 64 64
64 64 64
120 57 57
113 54 54
116 55 55
113 54 54
109 52 52
107 51 51
109 52 52
98 47 47
97 46 46
107 51 51
102 49 49
98 47 47
95 45 45
89 42 42
145 145 145
140 140 140
141 141 141
150 150 150
255 179 167
255 196 183
255 197 184
255 221 206
255 188 176
250 179 167
255 255 255
255 255 255
255 255 255
255 255 255
255 255 255
255 255 255
255 255 255
255 255 255
255 255 255
255 255 255
255 255 255
255 255 255
190 163 155
228 195 186
255 235 222
252 214 203
255 225 214
226 193 184
147 147 147
148 148 148
141 141 141
142 142 142
73 100 100
67 91 91
73 100 100
76 104 104
72 100 100
74 102 102
78 106 106
77 105 105
78 107 107
84 116 116
79 108 108
82 113 113
81 112 112
83 114 114
83 114 114
64 64 64

# y = 39
64 64 64
64 64 64
116 55 55
110 53 53
108 52 52
111 53 53
108 52 52
106 51 51
105 50 50
110 53 53
107 51 51
100 48 48
98 47 47
91 44 44
92 44 44
91 43 43
139 139 139
142 142 142
146 146 146
146 146 146
255 184 172
255 186 174
255 226 211
249 177 166
248 179 167
255 255 255
255 255 255
255 255 255
255 255 255
255 255 255
255 255 255
255 255 255
255 255 255
255 255 255
255 255 255
255 255 255
255 255 255
255 255 255
255 255 255
224 187 177
250 211 201
255 239 227
255 224 212
234 207 198
141 141 141
142 142 142
141 141 141
137 137 137
66 90 90
64 88 88
71 97 97
71 97 97
74 102 102
77 105 105
77 106 106
76 105 105
76 104 104
80 110 110
78 107 107
85 116 116
82 113 113
85 117 117
82 113 113
64 64 64

# y = 40
64 64 64
64 64 64
118 57 57
112 54 54
116 56 56
108 52 52
107 51 51
108 52 52
107 51 51
100 48 48
97 47 47
99 48 48
92 44 44
96 46 46
93 44 44
93 44 44
137 137 137
136 136 136
139 139 139
141 141 141
143 143 143
211 160 149
255 185 173
250 179 167
255 255 255
255 255 255
255 255 255
255 255 255
255 255 255
255 255 255
255 255 255
255 255 255
255 255 255
255 255 255
255 255 255
255 255 255
255 255 255
255 255 255
255 255 255
255 255 255
224 192 183
255 233 220
222 168 156
141 141 141
150 150 150
136 136 136
143 143 143
142 142 142
63 87 87
67 92 92
69 95 95
73 101 101
70 97 97
73 100 100
78 107 107
79 109 109
83 114 114
77 106 106
78 107 107
84 115 115
80 110 110
85 116 116
82 112 112
64 64 64

# y = 41
64 64 64
64 64 64
111 53 53
113 54 54
108 52 52
112 54 54
113 54 54
108 52 52
108 52 52
107 51 51
100 48 48
95 45 45
94 45 45
90 43 43
88 42 42
85 40 40
132 132 132
145 145 145
140 140 140
139 139 139
145 145 145
142 142 142
174 132 122
255 255 255
255 255 255
255 255 255
255 255 255
255 255 255
255 255 255
255 255 255
255 255 255
255 255 255
255 255 255
255 255 255
255 255 255
255 255 255
255 255 255
255 255 255
255 255 255
255 255 255
255 245 241
152 116 107
136 136 136
145 145 145
142 142 142
148 148 148
141 141 141
141 141 141
59 81 81
66 91 91
69 95 95
67 92 92
72 99 99
75 103 103
73 100 100
80 110 110
75 103 103
80 109 109
80 110 110
79 109 109
77 106 106
83 113 113
84 115 115
64 64 64

# y = 42
64 64 64
64 64 64
115 55 55
115 55 55
110 53 53
106 51 51
108 52 52
108 52 52
110 53 53
103 49 49
96 46 46
101 48 48
97 46 46
96 46 46
89 42 42
89 43 43
133 133 133
136 136 136
146 146 146
141 141 141
140 140 140
137 137 137
139 139 139
0 0 0
255 255 255
255 255 255
255 255 255
255 255 255
255 255 255
255 255 255
255 255 255
255 255 255
255 255 255
255 255 255
255 255 255
255 255 255
255 255 255
255 255 255
255 255 255
255 255 255
0 0 0
139 139 139
138 138 138
139 139 139
136 136 136
138 138 138
131 131 131
132 132 132
62 85 85
66 90 90
67 91 91
71 97 97
72 99 99
74 101 101
77 106 106
72 99 99
76 105 105
78 107 107
81 112 112
78 107 107
79 108 108
79 109 109
82 113 113
64 64 64

# y = 43
64 64 64
64 64 64
110 53 53
109 52 52
110 53 53
104 50 50
107 51 51
111 53 53
105 50 50
99 47 47
97 46 46
96 46 46
93 45 45
90 43 43
90 43 43
88 42 42
138 138 138
143 143 143
140 140 140
139 139 139
134 134 134
142 142 142
136 136 136
134 134 134
255 255 255
255 255 255
255 255 255
255 255 255
255 255 255
255 255 255
255 255 255
255 255 255
255 255 255
255 255 255
255 255 255
255 255 255
255 255 255
255 255 255
255 255 255
255 255 255
139 139 139
138 138 138
144 144 144
138 138 138
133 133 133
136 136 136
132 132 132
130 130 130
64 88 88
63 87 87
67 92 92
68 94 94
64 88 88
72 99 99
71 98 98
74 102 102
75 102 102
77 106 106
81 111 111
76 104 104
79 109 109
81 111 111
79 108 108
64 64 64

# y = 44
64 64 64
64 64 64
115 55 55
112 54 54
109 52 52
106 51 51
107 51 51
101 48 48
103 49 49
92 44 44
94 45 45
99 47 47
91 44 44
90 43 43
86 41 41
84 40 40
128 128 128
131 131 131
137 137 137
140 140 140
145 145 145
138 138 138
139 139 139
138 138 138
139 139 139
138 138 138
255 255 255
255 255 255
255 255 255
255 255 255
255 255 255
255 255 255
255 255 255
255 255 255
255 255 255
255 255 255
255 255 255
255 255 255
132 132 132
137 137 137
130 130 130
142 142 142
142 142 142
138 138 138
139 139 139
138 138 138
140 140 140
140 140 140
62 86 86
68 94 94
65 89 89
68 94 94
70 96 96
67 92 92
71 97 97
73 100 100
76 105 105
76 105 105
73 101 101
79 108 108
85 117 117
81 111 111
85 117 117
64 64 64

# y = 45
64 64 64
64 64 64
107 51 51
107 51 51
110 53 53
106 51 51
101 49 49
96 46 46
99 47 47
103 49 49
95 45 45
95 46 46
91 43 43
93 45 45
91 44 44
85 40 40
134 134 134
134 134 134
136 136 136
130 130 130
131 131 131
130 130 130
139 139 139
143 143 143
133 133 133
139 139 139
98 98 98
81 81 81
255 255 255
255 255 255
255 255 255
255 255 255
255 255 255
255 255 255
255 255 255
255 255 255
85 85 85
95 95 95
144 144 144
133 133 133
131 131 131
131 131 131
135 135 135
138 138 138
145 145 145
136 136 136
137 137 137
133 133 133
63 87 87
67 92 92
69 94 94
72 98 98
71 98 98
68 93 93
67 91 91
70 96 96
72 98 98
74 102 102
74 102 102
81 111 111
76 104 104
77 106 106
81 112 112
64 64 64

# y = 46
64 64 64
64 64 64
107 51 51
110 53 53
109 52 52
106 51 51
99 47 47
94 45 45
100 48 48
98 47 47
94 45 45
97 46 46
94 45 45
89 43 43
88 42 42
86 41 41
132 132 132
126 126 126
136 136 136
131 131 131
137 137 137
137 137 137
130 130 130
136 136 136
128 128 128
144 144 144
93 93 93
86 86 86
80 80 80
68 68 68
82 82 82
71 71 71
60 60 60
76 76 76
62 62 62
80 80 80
93 93 93
86 86 86
135 135 135
133 133 133
134 134 134
136 136 136
130 130 130
140 140 140
133 133 133
125 125 125
139 139 139
140 140 140
63 86 86
61 84 84
64 88 88
70 97 97
69 95 95
73 100 100
71 97 97
68 94 94
74 101 101
74 102 102
77 105 105
75 103 103
79 108 108
83 114 114
80 110 110
64 64 64

# y = 47
64 64 64
64 64 64
110 53 53
104 50 50
106 51 51
102 49 49
102 49 49
103 49 49
104 50 50
94 45 45
95 46 46
91 44 44
90 43 43
90 43 43
87 42 42
83 40 40
135 135 135
134 134 134
130 130 130
132 132 132
138 138 138
141 141 141
138 138 138
137 137 137
131 131 131
133 133 133
100 100 100
69 69 69
66 66 66
65 65 65
68 68 68
64 64 64
70 70 70
63 63 63
60 60 60
76 76 76
83 83 83
91 91 91
138 138 138
132 132 132
142 142 142
134 134 134
135 135 135
138 138 138
133 133 133
129 129 129
136 136 136
130 130 130
62 86 86
60 82 82
62 85 85
65 90 90
70 96 96
65 89 89
70 96 96
73 100 100
76 105 105
77 106 106
79 109 109
82 112 112
75 103 103
78 107 107
81 112 112
64 64 64

# y = 48
64 64 64
64 64 64
105 50 50
104 50 50
105 50 50
103 49 49
102 49 49
102 49 49
99 47 47
97 46 46
95 46 46
90 43 43
93 45 45
92 44 44
85 41 41
81 39 39
108 108 108
112 112 112
118 118 118
113 113 113
117 117 117
120 120 120
120 120 120
119 119 119
116 116 116
111 111 111
89 89 89
60 60 60
64 64 64
53 53 53
56 56 56
60 60 60
62 62 62
62 62 62
64 64 64
67 67 67
64 64 64
88 88 88
109 109 109
115 115 115
119 119 119
115 115 115
111 111 111
114 114 114
113 113 113
111 111 111
123 123 123
113 113 113
61 84 84
63 87 87
61 84 84
67 92 92
66 90 90
71 97 97
73 100 100
71 97 97
75 103 103
79 108 108
74 102 102
79 109 109
81 111 111
79 108 108
83 113 113
64 64 64

# y = 49
64 64 64
64 64 64
106 51 51
103 49 49
103 49 49
102 49 49
102 49 49
107 51 51
102 49 49
93 45 45
94 45 45
89 42 42
91 44 44
86 41 41
85 41 41
116 116 116
114 114 114
117 117 117
114 114 114
116 116 116
117 117 117
116 116 116
119 119 119
122 122 122
117 117 117
94 94 94
88 88 88
80 80 80
65 65 65
61 61 61
64 64 64
58 58 58
50 50 50
56 56 56
51 51 51
51 51 51
73 73 73
94 94 94
99 99 99
119 119 119
118 118 118
124 124 124
129 129 129
115 115 115
123 123 123
119 119 119
117 117 117
116 116 116
115 115 115
58 79 79
64 87 87
67 92 92
68 93 93
71 97 97
71 97 97
71 97 97
73 100 100
72 99 99
80 110 110
76 104 104
75 103 103
78 107 107
78 107 107
64 64 64

# y = 50
64 64 64
64 64 64
108 52 52
105 50 50
106 51 51
106 51 51
99 47 47
100 48 48
101 48 48
91 44 44
93 45 45
89 42 42
85 41 41
86 41 41
113 113 113
118 118 118
120 120 120
122 122 122
116 116 116
119 119 119
125 125 125
122 122 122
118 118 118
117 117 117
120 120 120
105 105 105
86 86 86
74 74 74
69 69 69
41 41 41
41 41 41
39 39 39
45 45 45
39 39 39
47 47 47
65 65 65
78 78 78
87 87 87
103 103 103
120 120 120
126 126 126
119 119 119
125 125 125
126 126 126
118 118 118
123 123 123
121 121 121
114 114 114
124 124 124
115 115 115
63 86 86
67 92 92
65 89 89
70 96 96
70 97 97
69 95 95
70 95 95
76 105 105
76 104 104
76 105 105
77 106 106
77 106 106
76 104 104
64 64 64

# y = 51
64 64 64
64 64 64
97 47 47
104 50 50
102 49 49
106 51 51
98 47 47
95 46 46
96 46 46
97 46 46
94 45 45
90 43 43
89 43 43
124 124 124
126 126 126
124 124 124
127 127 127
118 118 118
126 126 126
126 126 126
116 116 116
119 119 119
120 120 120
133 133 133
110 110 110
96 96 96
97 97 97
80 80 80
75 75 75
61 61 61
49 49 49
55 55 55
54 54 54
62 62 62
61 61 61
66 66 66
88 88 88
100 100 100
103 103 103
117 117 117
129 129 129
122 122 122
119 119 119
128 128 128
131 131 131
120 120 120
120 120 120
124 124 124
121 121 121
118 118 118
118 118 118
63 86 86
66 90 90
64 87 87
72 98 98
70 96 96
73 100 100
72 99 99
70 97 97
76 104 104
75 103 103
80 110 110
78 107 107
64 64 64

# y = 52
64 64 64
64 64 64
105 50 50
104 50 50
99 48 48
105 50 50
100 48 48
96 46 46
97 46 46
93 45 45
89 43 43
90 43 43
124 124 124
119 119 119
128 128 128
134 134 134
113 113 113
124 124 124
124 124 124
121 121 121
136 136 136
127 127 127
132 132 132
129 129 129
111 111 111
102 102 102
103 103 103
88 88 88
78 78 78
74 74 74
79 79 79
67 67 67
69 69 69
73 73 73
78 78 78
80 80 80
79 79 79
85 85 85
97 97 97
107 107 107
118 118 118
130 130 130
130 130 130
129 129 129
130 130 130
123 123 123
133 133 133
128 128 128
130 130 130
127 127 127
128 128 128
125 125 125
66 90 90
70 96 96
70 96 96
71 97 97
69 95 95
74 101 101
73 100 100
74 102 102
75 103 103
77 105 105
80 109 109
64 64 64

# y = 53
64 64 64
64 64 64
107 51 51
101 48 48
103 49 49
100 48 48
95 45 45
94 45 45
96 46 46
93 44 44
89 43 43
119 119 119
129 129 129
121 121 121
122 122 122
131 131 131
125 125 125
124 124 124
128 128 128
134 134 134
126 126 126
131 131 131
126 126 126
122 122 122
106 106 106
99 99 99
91 91 91
90 90 90
74 74 74
77 77 77
75 75 75
76 76 76
79 79 79
78 78 78
92 92 92
83 83 83
91 91 91
90 90 90
105 105 105
105 105 105
120 120 120
136 136 136
130 130 130
133 133 133
130 130 130
130 130 130
131 131 131
132 132 132
127 127 127
131 131 131
117 117 117
125 125 125
125 125 125
67 92 92
68 93 93
69 95 95
75 103 103
72 99 99
73 100 100
75 103 103
74 101 101
78 107 107
74 101 101
64 64 64

# y = 54
64 64 64
64 64 64
107 51 51
108 52 52
96 46 46
101 48 48
94 45 45
98 47 47
91 43 43
93 44 44
125 125 125
125 125 125
124 124 124
126 126 126
125 125 125
126 126 126
125 125 125
126 126 126
138 138 138
132 132 132
133 133 133
134 134 134
130 130 130
112 112 112
110 110 110
96 96 96
104 104 104
84 84 84
85 85 85
83 83 83
81 81 81
90 90 90
91 91 91
81 81 81
87 87 87
91 91 91
91 91 91
97 97 97
103 103 103
104 104 104
114 114 114
134 134 134
138 138 138
129 129 129
134 134 134
129 129 129
133 133 133
127 127 127
132 132 132
129 129 129
132 132 132
130 130 130
120 120 120
130 130 130
68 93 93
71 97 97
69 94 94
72 99 99
74 102 102
74 102 102
73 101 101
74 102 102
79 108 108
64 64 64

# y = 55
64 64 64
64 64 64
107 51 51
99 47 47
98 47 47
104 50 50
95 46 46
94 45 45
92 44 44
124 124 124
124 124 124
123 123 123
128 128 128
132 132 132
134 134 134
129 129 129
133 133 133
134 134 134
131 131 131
129 129 129
132 132 132
133 133 133
127 127 127
120 120 120
108 108 108
98 98 98
94 94 94
95 95 95
89 89 89
87 87 87
89 89 89
95 95 95
93 93 93
90 90 90
86 86 86
91 91 91
87 87 87
93 93 93
99 99 99
111 111 111
121 121 121
134 134 134
136 136 136
129 129 129
129 129 129
131 131 131
130 130 130
131 131 131
132 132 132
130 130 130
133 133 133
128 128 128
136 136 136
122 122 122
128 128 128
65 90 90
73 100 100
68 93 93
73 101 101
74 101 101
72 99 99
76 104 104
75 103 103
64 64 64

# y = 56
64 64 64
64 64 64
104 50 50
102 49 49
98 47 47
104 50 50
98 47 47
98 47 47
126 126 126
131 131 131
122 122 122
131 131 131
133 133 133
134 134 134
136 136 136
137 137 137
137 137 137
133 133 133
138 138 138
129 129 129
138 138 138
132 132 132
124 124 124
108 108 108
105 105 105
108 108 108
99 99 99
100 100 100
96 96 96
102 102 102
96 96 96
97 97 97
95 95 95
99 99 99
100 100 100
95 95 95
100 100 100
96 96 96
102 102 102
108 108 108
116 116 116
114 114 114
135 135 135
142 142 142
140 140 140
136 136 136
133 133 133
133 133 133
140 140 140
135 135 135
131 131 131
128 128 128
128 128 128
124 124 124
129 129 129
129 129 129
68 94 94
69 95 95
73 100 100
74 102 102
72 99 99
77 105 105
74 102 102
64 64 64

# y = 57
64 64 64
64 64 64
105 50 50
99 48 48
100 48 48
93 45 45
93 44 44
133 133 133
134 134 134
132 132 132
131 131 131
140 140 140
129 129 129
132 132 132
135 135 135
139 139 139
134 134 134
133 133 133
134 134 134
131 131 131
133 133 133
134 134 134
115 115 115
111 111 111
104 104 104
110 110 110
106 106 106
102 102 102
106 106 106
112 112 112
101 101 101
95 95 95
102 102 102
103 103 103
94 94 94
106 106 106
110 110 110
98 98 98
109 109 109
111 111 111
111 111 111
127 127 127
140 140 140
133 133 133
134 134 134
131 131 131
137 137 137
131 131 131
140 140 140
132 132 132
142 142 142
129 129 129
125 125 125
133 133 133
136 136 136
137 137 137
124 124 124
73 100 100
71 98 98
69 95 95
72 99 99
75 102 102
77 105 105
64 64 64

# y = 58
64 64 64
64 64 64
104 50 50
101 49 49
99 48 48
98 47 47
134 134 134
136 136 136
127 127 127
138 138 138
136 136 136
137 137 137
129 129 129
138 138 138
137 137 137
138 138 138
137 137 137
128 128 128
139 139 139
140 140 140
136 136 136
127 127 127
115 115 115
117 117 117
116 116 116
115 115 115
113 113 113
107 107 107
111 111 111
105 105 105
101 101 101
108 108 108
107 107 107
104 104 104
114 114 114
106 106 106
105 105 105
110 110 110
112 112 112
109 109 109
122 122 122
120 120 120
126 126 126
141 141 141
134 134 134
140 140 140
135 135 135
129 129 129
139 139 139
133 133 133
133 133 133
139 139 139
133 133 133
133 133 133
134 134 134
124 124 124
136 136 136
130 130 130
70 96 96
67 92 92
73 101 101
75 102 102
74 101 101
64 64 64

# y = 59
64 64 64
64 64 64
97 47 47
101 48 48
99 48 48
130 130 130
138 138 138
136 136 136
140 140 140
136 136 136
130 130 130
133 133 133
141 141 141
134 134 134
140 140 140
134 134 134
141 141 141
138 138 138
135 135 135
134 134 134
136 136 136
127 127 127
123 123 123
120 120 120
111 111 111
121 121 121
109 109 109
118 118 118
107 107 107
106 106 106
111 111 111
107 107 107
110 110 110
115 115 115
109 109 109
103 103 103
110 110 110
106 106 106
115 115 115
122 122 122
126 126 126
118 118 118
125 125 125
138 138 138
143 143 143
136 136 136
142 142 142
136 136 136
139 139 139
136 136 136
139 139 139
133 133 133
140 140 140
136 136 136
135 135 135
142 142 142
133 133 133
137 137 137
134 134 134
71 97 97
71 98 98
73 100 100
70 96 96
64 64 64

# y = 60
64 64 64
64 64 64
102 49 49
97 47 47
137 137 137
128 128 128
136 136 136
128 128 128
135 135 135
132 132 132
144 144 144
139 139 139
132 132 132
142 142 142
145 145 145
132 132 132
137 137 137
141 141 141
150 150 150
145 145 145
135 135 135
119 119 119
132 132 132
122 122 122
117 117 117
119 119 119
118 118 118
115 115 115
109 109 109
114 114 114
114 114 114
113 113 113
109 109 109
110 110 110
115 115 115
108 108 108
112 112 112
113 113 113
110 110 110
116 116 116
118 118 118
124 124 124
130 130 130
136 136 136
141 141 141
136 136 136
138 138 138
143 143 143
138 138 138
137 137 137
142 142 142
133 133 133
141 141 141
134 134 134
128 128 128
132 132 132
138 138 138
130 130 130
133 133 133
139 139 139
72 99 99
74 102 102
73 101 101
64 64 64

# y = 61
64 64 64
64 64 64
98 47 47
137 137 137
138 138 138
146 146 146
130 130 130
142 142 142
138 138 138
139 139 139
142 142 142
142 142 142
140 140 140
139 139 139
139 139 139
145 145 145
133 133 133
139 139 139
139 139 139
142 142 142
133 133 133
127 127 127
123 123 123
134 134 134
127 127 127
124 124 124
119 119 119
117 117 117
110 110 110
120 120 120
116 116 116
127 127 127
109 109 109
119 119 119
114 114 114
120 120 120
116 116 116
120 120 120
124 124 124
120 120 120
131 131 131
127 127 127
124 124 124
132 132 132
144 144 144
135 135 135
134 134 134
133 133 133
137 137 137
145 145 145
132 132 132
130 130 130
141 141 141
134 134 134
140 140 140
129 129 129
138 138 138
137 137 137
130 130 130
136 136 136
132 132 132
74 101 101
74 102 102
64 64 64

# y = 62
64 64 64
64 64 64
129 129 129
141 141 141
137 137 137
137 137 137
140 140 140
139 139 139
141 141 141
136 136 136
138 138 138
143 143 143
136 136 136
136 136 136
142 142 142
137 137 137
135 135 135
145 145 145
142 142 142
138 138 138
127 127 127
131 131 131
126 126 126
124 124 124
125 125 125
127 127 127
124 124 124
123 123 123
121 121 121
115 115 115
121 121 121
125 125 125
117 117 117
126 126 126
120 120 120
113 113 113
120 120 120
127 127 127
122 122 122
127 127 127
132 132 132
129 129 129
137 137 137
131 131 131
138 138 138
142 142 142
148 148 148
137 137 137
130 130 130
139 139 139
143 143 143
134 134 134
140 140 140
141 141 141
143 143 143
138 138 138
132 132 132
133 133 133
135 135 135
134 134 134
134 134 134
137 137 137
75 103 103
64 64 64

# y = 63
64 64 64
64 64 64
64 64 64
64 64 64
64 64 64
64 64 64
64 64 64
64 64 64
64 64 64
64 64 64
64 64 64
64 64 64
64 64 64
64 64 64
64 64 64
64 64 64
64 64 64
64 64 64
64 64 64
64 64 64
64 64 64
64 64 64
64 64 64
64 64 64
64 64 64
64 64 64
64 64 64
64 64 64
64 64 64
64 64 64
64 64 64
64 64 64
64 64 64
64 64 64
64 64 64
64 64 64
64 64 64
64 64 64
64 64 64
64 64 64
64 64 64
64 64 64
64 64 64
64 64 64
64 64 64
64 64 64
64 64 64
64 64 64
64 64 64
64 64 64
64 64 64
64 64 64
64 64 64
64 64 64
64 64 64
64 64 64
64 64 64
64 64 64
64 64 64
64 64 64
64 64 64
64 64 64
64 64 64
64 64 64
