P3 64 64 255

# y = 0
64 64 64
64 64 64
64 64 64
64 64 64
64 64 64
64 64 64
64 64 64
64 64 64
64 64 64
64 64 64
64 64 64
64 64 64
64 64 64
64 64 64
64 64 64
64 64 64
64 64 64
64 64 64
64 64 64
64 64 64
64 64 64
64 64 64
64 64 64
64 64 64
64 64 64
64 64 64
64 64 64
64 64 64
64 64 64
64 64 64
64 64 64
64 64 64
64 64 64
64 64 64
64 64 64
64 64 64
64 64 64
64 64 64
64 64 64
64 64 64
64 64 64
64 64 64
64 64 64
64 64 64
64 64 64
64 64 64
64 64 64
64 64 64
64 64 64
64 64 64
64 64 64
64 64 64
64 64 64
64 64 64
64 64 64
64 64 64
64 64 64
64 64 64
64 64 64
64 64 64
64 64 64
64 64 64
64 64 64
64 64 64

# y = 1
64 64 64
64 64 64
64 64 64
64 64 64
64 64 64
64 64 64
64 64 64
64 64 64
64 64 64
64 64 64
64 64 64
64 64 64
64 64 64
64 64 64
64 64 64
64 64 64
64 64 64
64 64 64
64 64 64
64 64 64
64 64 64
64 64 64
64 64 64
64 64 64
64 64 64
64 64 64
64 64 64
64 64 64
64 64 64
64 64 64
64 64 64
64 64 64
64 64 64
64 64 64
64 64 64
64 64 64
64 64 64
64 64 64
64 64 64
64 64 64
64 64 64
64 64 64
64 64 64
64 64 64
64 64 64
64 64 64
64 64 64
64 64 64
64 64 64
64 64 64
64 64 64
64 64 64
64 64 64
64 64 64
64 64 64
64 64 64
64 64 64
64 64 64
64 64 64
64 64 64
64 64 64
64 64 64
64 64 64
64 64 64

# y = 2
64 64 64
64 64 64
141 68 68
18 18 18
19 19 19
18 18 18
19 19 19
20 20 20
20 20 20
21 21 21
20 20 20
21 21 21
24 24 24
24 24 24
23 23 23
26 26 26
25 25 25
27 27 27
26 26 26
26 26 26
27 27 27
29 29 29
32 32 32
31 31 31
40 40 40
42 42 42
45 45 45
41 41 41
38 38 38
63 63 63
64 64 64
106 106 106
184 184 184
72 72 72
50 50 50
50 50 50
52 52 52
39 39 39
36 36 36
35 35 35
29 29 29
33 33 33
28 28 28
32 32 32
24 24 24
27 27 27
27 27 27
26 26 26
25 25 25
22 22 22
23 23 23
21 21 21
21 21 21
22 22 22
20 20 20
20 20 20
19 19 19
20 20 20
19 19 19
19 19 19
19 19 19
113 155 155
106 145 145
64 64 64

# y = 3
64 64 64
64 64 64
137 66 66
151 72 72
19 19 19
18 18 18
19 19 19
19 19 19
19 19 19
19 19 19
22 22 22
20 20 20
21 21 21
23 23 23
23 23 23
22 22 22
23 23 23
26 26 26
23 23 23
29 29 29
25 25 25
30 30 30
29 29 29
29 29 29
33 33 33
33 33 33
36 36 36
49 49 49
52 52 52
64 64 64
85 85 85
94 94 94
86 86 86
78 78 78
50 50 50
48 48 48
45 45 45
30 30 30
36 36 36
31 31 31
30 30 30
28 28 28
27 27 27
28 28 28
27 27 27
26 26 26
22 22 22
24 24 24
25 25 25
25 25 25
22 22 22
23 23 23
21 21 21
20 20 20
19 19 19
19 19 19
19 19 19
21 21 21
19 19 19
19 19 19
113 155 155
101 138 138
91 125 125
64 64 64

# y = 4
64 64 64
64 64 64
130 62 62
121 58 58
157 75 75
19 19 19
17 17 17
17 17 17
18 18 18
20 20 20
19 19 19
21 21 21
21 21 21
21 21 21
24 24 24
22 22 22
22 22 22
25 25 25
29 29 29
25 25 25
27 27 27
31 31 31
26 26 26
33 33 33
36 36 36
34 34 34
46 46 46
40 40 40
39 39 39
255 255 255
255 255 255
255 255 255
255 255 255
255 255 255
255 255 255
49 49 49
43 43 43
39 39 39
41 41 41
32 32 32
32 32 32
32 32 32
29 29 29
29 29 29
27 27 27
26 26 26
23 23 23
23 23 23
26 26 26
20 20 20
22 22 22
21 21 21
21 21 21
19 19 19
20 20 20
20 20 20
18 18 18
18 18 18
17 17 17
99 136 136
99 137 137
99 136 136
86 118 118
64 64 64

# y = 5
64 64 64
64 64 64
120 58 58
131 63 63
128 61 61
150 72 72
20 20 20
19 19 19
19 19 19
21 21 21
18 18 18
20 20 20
20 20 20
21 21 21
22 22 22
22 22 22
22 22 22
24 24 24
23 23 23
24 24 24
27 27 27
28 28 28
30 30 30
26 26 26
35 35 35
37 37 37
42 42 42
43 43 43
47 47 47
255 255 255
255 255 255
255 255 255
255 255 255
255 255 255
255 255 255
48 48 48
41 41 41
32 32 32
35 35 35
36 36 36
30 30 30
28 28 28
28 28 28
25 25 25
24 24 24
22 22 22
24 24 24
27 27 27
22 22 22
22 22 22
22 22 22
20 20 20
18 18 18
19 19 19
19 19 19
18 18 18
19 19 19
19 19 19
111 152 152
96 132 132
89 122 122
95 130 130
87 119 119
64 64 64

# y = 6
64 64 64
64 64 64
119 57 57
118 56 56
119 57 57
124 59 59
155 74 74
19 19 19
19 19 19
19 19 19
18 18 18
20 20 20
18 18 18
21 21 21
21 21 21
22 22 22
23 23 23
21 21 21
25 25 25
26 26 26
24 24 24
27 27 27
31 31 31
29 29 29
32 32 32
35 35 35
32 32 32
46 46 46
47 47 47
255 255 255
255 255 255
255 255 255
255 255 255
255 255 255
255 255 255
46 46 46
42 42 42
39 39 39
29 29 29
31 31 31
30 30 30
26 26 26
28 28 28
24 24 24
25 25 25
23 23 23
22 22 22
23 23 23
22 22 22
23 23 23
20 20 20
21 21 21
20 20 20
18 18 18
19 19 19
18 18 18
16 16 16
101 139 139
101 138 138
90 123 123
90 123 123
89 122 122
89 122 122
64 64 64

# y = 7
64 64 64
64 64 64
114 55 55
121 58 58
122 58 58
117 56 56
131 63 63
142 68 68
18 18 18
18 18 18
16 16 16
19 19 19
18 18 18
19 19 19
21 21 21
19 19 19
23 23 23
23 23 23
22 22 22
25 25 25
25 25 25
23 23 23
27 27 27
31 31 31
33 33 33
36 36 36
38 38 38
40 40 40
42 42 42
255 255 255
255 255 255
255 255 255
255 255 255
255 255 255
255 255 255
49 49 49
42 42 42
37 37 37
31 31 31
30 30 30
28 28 28
27 27 27
25 25 25
23 23 23
25 25 25
22 22 22
22 22 22
23 23 23
21 21 21
20 20 20
20 20 20
19 19 19
18 18 18
19 19 19
20 20 20
17 17 17
107 147 147
92 126 126
83 115 115
84 116 116
85 117 117
88 121 121
89 122 122
64 64 64

# y = 8
64 64 64
64 64 64
125 60 60
114 55 55
115 55 55
114 55 55
117 56 56
122 58 58
153 74 74
19 19 19
18 18 18
18 18 18
19 19 19
20 20 20
21 21 21
20 20 20
21 21 21
20 20 20
24 24 24
23 23 23
24 24 24
27 27 27
29 29 29
29 29 29
33 33 33
33 33 33
36 36 36
39 39 39
40 40 40
255 255 255
255 255 255
255 255 255
255 255 255
255 255 255
255 255 255
41 41 41
39 39 39
34 34 34
35 35 35
32 32 32
25 25 25
24 24 24
27 27 27
28 28 28
25 25 25
25 25 25
21 21 21
21 21 21
23 23 23
18 18 18
18 18 18
19 19 19
19 19 19
19 19 19
18 18 18
105 145 145
86 118 118
85 117 117
90 123 123
84 116 116
89 122 122
87 120 120
86 118 118
64 64 64

# y = 9
64 64 64
64 64 64
118 57 57
118 57 57
115 55 55
113 54 54
121 58 58
110 52 52
114 55 55
139 67 67
17 17 17
17 17 17
17 17 17
19 19 19
19 19 19
20 20 20
20 20 20
20 20 20
23 23 23
23 23 23
24 24 24
27 27 27
25 25 25
24 24 24
31 31 31
34 34 34
32 32 32
38 38 38
32 32 32
255 255 255
255 255 255
255 255 255
255 255 255
255 255 255
255 255 255
31 31 31
33 33 33
34 34 34
32 32 32
28 28 28
27 27 27
27 27 27
24 24 24
24 24 24
22 22 22
21 21 21
21 21 21
22 22 22
20 20 20
20 20 20
20 20 20
18 18 18
18 18 18
18 18 18
113 154 154
85 117 117
83 114 114
86 118 118
84 115 115
84 115 115
77 105 105
88 120 120
88 121 121
64 64 64

# y = 10
64 64 64
64 64 64
124 59 59
112 54 54
112 54 54
117 56 56
117 56 56
113 54 54
115 55 55
111 53 53
141 68 68
17 17 17
19 19 19
18 18 18
18 18 18
20 20 20
20 20 20
21 21 21
21 21 21
21 21 21
22 22 22
23 23 23
25 25 25
30 30 30
27 27 27
30 30 30
31 31 31
30 30 30
30 30 30
79 59 55
216 169 159
212 187 182
88 69 65
224 177 166
75 57 53
29 29 29
34 34 34
33 33 33
32 32 32
29 29 29
24 24 24
25 25 25
24 24 24
23 23 23
23 23 23
22 22 22
22 22 22
19 19 19
17 17 17
17 17 17
18 18 18
18 18 18
17 17 17
102 140 140
89 122 122
77 106 106
87 119 119
81 111 111
87 119 119
90 123 123
92 126 126
86 117 117
94 129 129
64 64 64

# y = 11
64 64 64
64 64 64
123 59 59
111 53 53
116 55 55
119 57 57
110 53 53
120 58 58
112 54 54
114 55 55
116 56 56
133 64 64
17 17 17
16 16 16
19 19 19
19 19 19
19 19 19
20 20 20
20 20 20
23 23 23
20 20 20
23 23 23
23 23 23
25 25 25
29 29 29
26 26 26
82 62 58
188 144 134
172 134 125
236 182 170
238 186 175
255 221 212
233 188 179
235 183 172
217 168 157
215 164 153
224 171 160
82 62 58
28 28 28
25 25 25
26 26 26
25 25 25
23 23 23
22 22 22
21 21 21
21 21 21
20 20 20
20 20 20
19 19 19
18 18 18
18 18 18
17 17 17
105 144 144
92 127 127
80 109 109
74 102 102
84 116 116
83 114 114
86 118 118
88 121 121
86 118 118
93 128 128
93 128 128
64 64 64

# y = 12
64 64 64
64 64 64
126 60 60
118 57 57
117 56 56
116 56 56
120 57 57
110 53 53
115 55 55
104 50 50
112 54 54
114 54 54
137 66 66
18 18 18
17 17 17
18 18 18
18 18 18
18 18 18
19 19 19
20 20 20
21 21 21
23 23 23
26 26 26
26 26 26
81 62 57
99 75 70
103 81 76
246 188 175
184 142 132
188 145 136
138 115 110
249 201 191
187 152 144
230 177 165
221 171 160
239 183 170
229 175 163
224 171 159
95 72 67
89 68 63
23 23 23
24 24 24
23 23 23
20 20 20
21 21 21
20 20 20
20 20 20
18 18 18
19 19 19
18 18 18
17 17 17
99 136 136
85 116 116
79 109 109
76 105 105
83 113 113
88 120 120
85 117 117
89 122 122
80 109 109
83 114 114
76 105 105
93 127 127
64 64 64

# y = 13
64 64 64
64 64 64
129 62 62
113 54 54
115 55 55
114 54 54
103 49 49
102 49 49
112 53 53
109 52 52
108 52 52
112 54 54
118 56 56
134 64 64
17 17 17
18 18 18
20 20 20
19 19 19
19 19 19
19 19 19
20 20 20
21 21 21
22 22 22
101 76 71
106 80 74
224 171 159
230 176 164
241 184 171
245 187 174
251 191 178
195 151 141
253 199 187
217 178 170
244 190 178
231 177 166
246 188 175
231 177 164
184 140 131
229 175 162
109 83 77
97 74 68
21 21 21
21 21 21
21 21 21
20 20 20
20 20 20
18 18 18
17 17 17
17 17 17
16 16 16
106 145 145
79 109 109
79 108 108
70 96 96
68 93 93
82 112 112
75 102 102
86 117 117
76 104 104
87 120 120
85 116 116
91 124 124
86 119 119
64 64 64

# y = 14
64 64 64
64 64 64
120 57 57
120 58 58
110 53 53
108 52 52
117 56 56
111 53 53
115 55 55
100 48 48
104 50 50
104 50 50
104 50 50
100 48 48
133 64 64
17 17 17
16 16 16
17 17 17
19 19 19
19 19 19
20 20 20
21 21 21
106 80 74
113 85 79
223 170 158
237 180 168
230 175 163
249 189 176
241 185 172
244 187 174
245 187 175
228 177 166
241 185 173
202 157 147
188 145 135
238 182 169
227 173 161
237 181 168
179 137 127
222 169 157
103 78 72
103 78 73
21 21 21
21 21 21
19 19 19
19 19 19
18 18 18
17 17 17
17 17 17
97 133 133
65 89 89
76 104 104
75 103 103
76 104 104
72 99 99
79 109 109
91 125 125
80 110 110
82 112 112
81 111 111
82 113 113
88 120 120
79 108 108
64 64 64

# y = 15
64 64 64
64 64 64
105 50 50
114 55 55
115 55 55
112 54 54
106 51 51
104 50 50
107 51 51
105 50 50
108 52 52
103 49 49
99 47 47
101 48 48
105 50 50
132 63 63
16 16 16
17 17 17
17 17 17
18 18 18
18 18 18
111 84 78
111 84 78
129 98 91
224 171 159
229 175 162
235 179 166
236 180 167
177 136 127
242 185 172
251 194 181
247 191 179
236 183 171
237 184 172
241 184 171
240 183 170
129 100 93
194 148 138
207 157 146
227 173 160
118 89 83
116 88 82
106 81 75
18 18 18
19 19 19
18 18 18
16 16 16
16 16 16
94 130 130
69 95 95
78 106 106
69 95 95
75 103 103
71 97 97
79 108 108
75 103 103
79 108 108
82 112 112
79 109 109
82 112 112
86 118 118
80 110 110
90 123 123
64 64 64

# y = 16
64 64 64
64 64 64
123 59 59
113 54 54
117 56 56
110 53 53
109 52 52
114 55 55
103 49 49
107 51 51
99 47 47
103 49 49
110 52 52
99 47 47
99 47 47
91 43 43
166 166 166
161 161 161
159 159 159
169 169 169
113 86 80
125 95 88
118 90 83
137 104 96
184 140 130
221 168 156
186 142 132
140 108 100
242 185 172
247 188 175
246 189 176
218 173 164
252 195 182
252 194 181
235 179 167
183 139 129
231 176 163
228 173 161
220 168 156
185 141 131
127 96 89
124 94 87
115 87 81
109 82 76
167 167 167
162 162 162
155 155 155
160 160 160
68 93 93
76 104 104
71 97 97
76 104 104
69 95 95
78 107 107
76 104 104
84 115 115
78 107 107
84 115 115
85 117 117
85 117 117
81 111 111
81 111 111
78 107 107
64 64 64

# y = 17
64 64 64
64 64 64
102 49 49
109 52 52
107 51 51
119 57 57
105 50 50
117 56 56
109 52 52
102 49 49
102 49 49
97 47 47
93 44 44
97 46 46
94 45 45
91 44 44
135 135 135
142 142 142
139 139 139
152 152 152
130 99 92
126 95 89
126 95 88
133 101 94
219 166 154
174 133 123
223 170 158
227 172 160
183 140 131
192 147 137
248 191 178
224 174 163
255 202 189
253 193 180
198 152 142
136 105 98
217 165 154
231 176 164
214 163 152
228 173 161
129 98 91
128 97 90
130 98 91
117 89 83
154 154 154
141 141 141
146 146 146
144 144 144
73 101 101
70 96 96
71 97 97
71 97 97
70 96 96
75 103 103
73 100 100
80 110 110
77 105 105
79 109 109
90 124 124
81 111 111
83 114 114
84 116 116
90 123 123
64 64 64

# y = 18
64 64 64
64 64 64
118 56 56
119 57 57
120 57 57
109 52 52
110 53 53
104 50 50
111 53 53
111 53 53
101 48 48
106 51 51
95 45 45
94 45 45
98 47 47
97 46 46
150 150 150
151 151 151
152 152 152
120 91 84
206 120 115
247 155 147
255 181 170
255 184 174
255 186 176
214 163 151
195 149 138
187 143 133
243 185 172
248 189 176
200 153 143
243 189 177
227 182 172
205 157 146
207 158 148
200 152 142
226 172 160
194 148 137
186 141 131
255 241 232
253 245 237
164 168 164
178 198 195
199 179 172
113 85 79
148 148 148
144 144 144
143 143 143
66 91 91
72 98 98
70 96 96
69 95 95
79 109 109
75 102 102
74 102 102
77 106 106
81 111 111
78 107 107
76 104 104
78 108 108
87 120 120
84 116 116
92 127 127
64 64 64

# y = 19
64 64 64
64 64 64
108 52 52
127 61 61
107 51 51
114 55 55
113 54 54
107 51 51
97 46 46
101 49 49
101 49 49
94 45 45
86 41 41
90 43 43
96 46 46
88 42 42
142 142 142
146 146 146
141 141 141
255 169 160
255 172 161
251 169 159
244 160 151
241 154 146
255 179 169
225 151 142
180 137 127
223 170 158
245 187 173
241 184 171
251 192 178
252 194 181
248 195 184
255 195 181
255 200 186
239 182 169
198 151 141
233 177 164
245 233 226
255 242 234
241 230 222
195 190 184
206 208 203
245 233 225
233 224 217
143 143 143
134 134 134
142 142 142
64 88 88
71 98 98
63 86 86
65 89 89
70 96 96
73 100 100
75 104 104
80 110 110
76 105 105
77 105 105
80 109 109
75 104 104
82 112 112
86 118 118
85 117 117
64 64 64

# y = 20
64 64 64
64 64 64
108 52 52
112 54 54
103 49 49
104 50 50
115 55 55
102 49 49
97 46 46
110 52 52
105 50 50
98 47 47
96 46 46
89 43 43
89 43 43
88 42 42
139 139 139
138 138 138
156 156 156
255 177 167
245 164 154
246 167 157
228 145 138
255 178 167
255 178 167
255 181 170
255 176 166
234 178 166
247 188 174
238 182 169
251 191 178
217 167 156
255 206 192
205 156 145
210 160 149
194 148 138
194 148 137
252 236 228
252 243 235
235 214 206
229 210 202
227 217 210
239 221 213
229 214 206
201 198 192
146 146 146
138 138 138
132 132 132
66 91 91
68 94 94
62 85 85
69 95 95
74 102 102
74 102 102
77 106 106
75 103 103
77 105 105
82 113 113
80 110 110
76 104 104
85 116 116
79 108 108
84 115 115
64 64 64

# y = 21
64 64 64
64 64 64
115 55 55
110 52 52
112 54 54
109 52 52
114 54 54
104 50 50
102 49 49
97 47 47
101 48 48
101 48 48
99 47 47
97 47 47
91 44 44
81 39 39
140 140 140
128 128 128
224 148 140
206 142 133
248 172 161
240 161 152
254 175 164
255 175 165
231 153 145
255 178 167
219 140 133
255 183 172
236 179 166
243 185 172
255 202 187
255 204 190
246 189 177
255 207 192
230 176 163
157 120 111
255 251 243
255 236 227
237 220 212
236 215 207
231 217 210
232 215 207
209 199 193
207 197 191
199 198 193
203 198 192
140 140 140
137 137 137
64 87 87
67 91 91
69 95 95
66 91 91
70 96 96
79 108 108
73 100 100
74 102 102
81 111 111
85 117 117
84 115 115
84 116 116
88 121 121
84 116 116
84 115 115
64 64 64

# y = 22
64 64 64
64 64 64
117 56 56
115 55 55
120 58 58
110 53 53
97 47 47
112 54 54
107 51 51
108 52 52
103 49 49
101 48 48
97 46 46
98 47 47
89 42 42
87 41 41
137 137 137
139 139 139
253 170 160
226 151 142
243 165 155
250 170 159
224 150 141
247 171 160
254 174 164
233 157 148
255 184 173
255 188 176
255 179 168
213 162 151
170 130 121
218 168 157
255 218 204
255 196 182
239 182 169
236 234 228
241 225 217
237 216 207
216 203 196
198 185 179
222 208 200
201 188 181
233 215 207
182 183 178
225 202 194
167 174 170
132 132 132
136 136 136
64 88 88
63 86 86
71 97 97
69 94 94
69 95 95
72 99 99
70 96 96
71 98 98
71 97 97
86 118 118
78 108 108
85 117 117
86 118 118
79 108 108
89 122 122
64 64 64

# y = 23
64 64 64
64 64 64
115 55 55
117 56 56
111 53 53
108 52 52
103 49 49
104 50 50
95 45 45
109 52 52
105 50 50
96 46 46
96 46 46
93 44 44
91 44 44
95 45 45
127 127 127
137 137 137
246 167 157
219 148 139
201 131 124
245 170 159
244 168 158
248 170 159
249 171 161
230 159 149
214 139 132
255 187 175
255 196 184
175 133 123
159 121 112
172 131 121
166 126 117
173 131 121
169 128 119
233 213 205
240 217 208
209 178 169
236 211 202
218 202 195
220 200 193
200 181 174
223 203 195
220 200 192
235 212 203
198 190 184
140 140 140
139 139 139
61 83 83
66 91 91
66 91 91
66 91 91
72 99 99
70 96 96
70 96 96
74 102 102
76 104 104
72 99 99
84 115 115
78 107 107
82 113 113
85 117 117
83 113 113
64 64 64

# y = 24
64 64 64
64 64 64
116 55 55
112 53 53
104 50 50
102 49 49
105 50 50
105 50 50
99 47 47
103 49 49
96 46 46
98 47 47
95 46 46
94 45 45
92 44 44
82 39 39
130 130 130
138 138 138
239 164 154
237 162 152
235 163 153
255 177 166
248 173 162
250 172 161
219 150 141
216 145 137
248 172 161
255 173 163
255 176 165
255 205 192
191 145 135
184 139 129
193 146 136
180 137 127
250 224 215
225 207 200
224 203 195
230 203 195
243 215 206
215 196 188
201 174 166
221 198 190
204 185 178
187 171 165
221 197 188
228 203 195
146 146 146
128 128 128
61 84 84
70 96 96
68 94 94
77 106 106
70 97 97
73 100 100
73 100 100
79 108 108
80 110 110
83 114 114
76 105 105
84 115 115
80 109 109
85 117 117
82 113 113
64 64 64

# y = 25
64 64 64
64 64 64
106 51 51
99 47 47
109 52 52
111 53 53
109 52 52
106 51 51
97 47 47
102 49 49
90 43 43
100 48 48
93 44 44
91 44 44
82 39 39
89 42 42
147 147 147
128 128 128
238 162 153
215 142 134
242 167 157
248 172 161
243 170 159
240 166 156
236 165 155
239 167 156
248 175 163
246 173 162
255 181 169
255 187 176
193 146 136
255 255 255
255 255 255
183 138 128
255 226 215
242 212 202
227 201 192
233 199 189
218 194 186
231 203 194
222 195 187
220 195 187
227 204 196
223 201 193
220 197 189
225 204 196
133 133 133
135 135 135
63 87 87
63 87 87
68 93 93
70 96 96
70 96 96
71 97 97
68 94 94
70 96 96
82 112 112
77 106 106
81 111 111
76 104 104
79 109 109
80 110 110
82 112 112
64 64 64

# y = 26
64 64 64
64 64 64
116 55 55
108 52 52
109 52 52
110 53 53
103 49 49
109 52 52
107 51 51
97 46 46
105 50 50
94 45 45
95 46 46
92 44 44
92 44 44
83 40 40
141 141 141
134 134 134
237 162 152
235 165 155
238 167 156
244 171 160
241 171 160
246 172 161
237 164 154
229 160 150
248 175 164
254 180 168
255 185 173
255 191 178
209 159 147
213 162 150
204 155 144
195 148 137
251 216 205
239 209 199
253 214 203
246 210 200
233 198 188
231 199 190
240 207 197
224 199 190
221 195 187
211 196 189
214 194 186
220 200 192
136 136 136
138 138 138
64 88 88
69 94 94
69 94 94
68 93 93
72 98 98
67 92 92
75 103 103
68 94 94
74 101 101
78 107 107
78 107 107
84 115 115
78 108 108
74 101 101
82 112 112
64 64 64

# y = 27
64 64 64
64 64 64
111 53 53
108 52 52
106 51 51
104 50 50
109 52 52
103 49 49
101 49 49
102 49 49
99 47 47
92 44 44
102 49 49
89 42 42
87 42 42
89 43 43
137 137 137
136 136 136
212 144 135
238 167 157
247 174 163
237 167 156
237 166 156
238 169 158
251 179 167
255 182 170
255 195 182
255 205 191
237 169 158
226 161 151
220 167 155
255 255 255
255 255 255
195 148 137
255 227 214
234 198 188
255 214 203
255 218 207
230 199 189
241 203 192
212 186 178
210 185 177
226 197 188
207 187 180
180 170 165
232 208 199
128 128 128
138 138 138
63 87 87
63 86 86
65 90 90
68 93 93
64 88 88
68 94 94
65 89 89
73 101 101
72 99 99
79 109 109
80 110 110
86 118 118
79 108 108
85 116 116
86 118 118
64 64 64

# y = 28
64 64 64
64 64 64
111 53 53
107 51 51
104 50 50
107 51 51
106 51 51
105 50 50
96 46 46
101 48 48
101 48 48
95 45 45
93 44 44
88 42 42
85 40 40
81 39 39
134 134 134
135 135 135
137 137 137
226 157 147
235 167 156
231 161 151
230 161 151
252 181 169
255 195 182
254 184 171
255 188 175
255 198 185
255 216 201
255 255 255
255 255 255
255 255 255
255 255 255
255 255 255
255 255 255
255 223 210
243 204 193
249 206 195
253 215 205
233 198 188
231 198 188
212 187 179
237 206 197
227 200 192
200 185 178
133 133 133
142 142 142
131 131 131
62 86 86
62 85 85
68 93 93
69 95 95
66 90 90
66 91 91
70 97 97
69 95 95
76 105 105
71 97 97
73 100 100
78 106 106
81 111 111
73 100 100
81 111 111
64 64 64

# y = 29
64 64 64
64 64 64
111 53 53
111 53 53
111 53 53
107 51 51
99 47 47
102 49 49
100 48 48
97 46 46
100 48 48
92 44 44
88 42 42
87 42 42
90 43 43
84 40 40
123 123 123
137 137 137
134 134 134
233 162 152
236 170 158
248 174 163
248 180 168
236 170 159
255 189 176
245 176 164
255 203 189
255 213 198
255 255 255
255 255 255
255 255 255
255 255 255
255 255 255
255 255 255
255 255 255
255 255 255
254 209 198
255 223 210
255 213 201
228 196 187
238 201 191
242 203 192
226 198 190
209 184 175
182 171 166
130 130 130
136 136 136
140 140 140
58 80 80
63 87 87
67 92 92
62 86 86
71 97 97
70 96 96
72 99 99
69 94 94
73 101 101
78 108 108
76 104 104
74 102 102
77 105 105
84 115 115
80 110 110
64 64 64

# y = 30
64 64 64
64 64 64
113 54 54
109 52 52
103 50 50
110 53 53
95 45 45
105 50 50
96 46 46
101 48 48
94 45 45
102 49 49
99 47 47
86 41 41
90 43 43
83 40 40
128 128 128
131 131 131
133 133 133
225 157 147
240 171 159
244 175 163
255 184 172
255 190 177
255 188 175
255 192 179
255 187 175
255 194 181
255 255 255
255 255 255
255 255 255
255 255 255
255 255 255
255 255 255
255 255 255
255 255 255
249 203 191
255 221 208
255 220 207
246 203 192
255 217 205
228 195 186
238 203 194
245 210 200
222 196 188
133 133 133
134 134 134
141 141 141
60 83 83
61 84 84
61 83 83
67 92 92
74 101 101
76 104 104
73 100 100
70 95 95
70 97 97
77 105 105
79 108 108
77 106 106
75 104 104
81 111 111
79 109 109
64 64 64

# y = 31
64 64 64
64 64 64
111 53 53
111 53 53
100 48 48
100 48 48
101 48 48
95 46 46
99 47 47
97 46 46
96 46 46
89 43 43
92 44 44
86 41 41
84 40 40
80 38 38
138 138 138
134 134 134
140 140 140
139 139 139
241 171 160
232 164 154
255 193 180
255 197 184
255 206 192
255 219 203
255 200 186
255 255 255
255 255 255
255 255 255
255 255 255
255 255 255
255 255 255
255 255 255
255 255 255
255 255 255
255 255 255
254 207 195
255 224 210
255 227 214
255 221 209
232 196 186
235 200 190
227 194 184
138 138 138
124 124 124
130 130 130
139 139 139
55 76 76
66 90 90
64 88 88
66 91 91
69 94 94
68 94 94
69 95 95
73 100 100
73 100 100
80 109 109
71 98 98
74 102 102
80 110 110
71 98 98
77 105 105
64 64 64

# y = 32
64 64 64
64 64 64
105 50 50
102 49 49
104 50 50
97 46 46
96 46 46
104 50 50
96 46 46
101 49 49
90 43 43
94 45 45
88 42 42
90 43 43
89 42 42
85 41 41
133 133 133
131 131 131
135 135 135
140 140 140
132 132 132
237 169 158
255 192 179
237 169 158
255 198 184
198 140 131
255 255 255
255 255 255
255 255 255
255 255 255
255 255 255
255 255 255
255 255 255
255 255 255
255 255 255
255 255 255
255 255 255
255 255 255
206 171 162
255 215 203
254 211 200
254 212 201
240 202 191
127 127 127
127 127 127
135 135 135
129 129 129
131 131 131
59 82 82
61 83 83
69 95 95
69 95 95
66 90 90
71 97 97
73 100 100
75 103 103
69 95 95
79 109 109
78 107 107
76 104 104
77 106 106
85 117 117
82 112 112
64 64 64

# y = 33
64 64 64
64 64 64
102 49 49
99 47 47
98 47 47
105 50 50
97 46 46
96 46 46
104 50 50
95 45 45
95 46 46
87 42 42
95 46 46
83 40 40
79 38 38
83 40 40
128 128 128
142 142 142
141 141 141
133 133 133
128 128 128
253 183 170
255 194 181
255 195 181
246 180 168
255 255 255
255 255 255
255 255 255
255 255 255
255 255 255
255 255 255
255 255 255
255 255 255
255 255 255
255 255 255
255 255 255
255 255 255
255 255 255
255 255 255
242 200 189
255 217 204
252 210 199
249 210 199
146 146 146
130 130 130
129 129 129
136 136 136
133 133 133
63 86 86
63 87 87
63 86 86
67 92 92
60 82 82
62 86 86
68 93 93
70 97 97
69 95 95
78 107 107
76 105 105
78 107 107
76 105 105
73 100 100
79 108 108
64 64 64

# y = 34
64 64 64
64 64 64
105 50 50
99 48 48
103 50 50
102 49 49
100 48 48
98 47 47
101 48 48
89 43 43
91 43 43
94 45 45
88 42 42
89 42 42
84 40 40
85 41 41
143 143 143
127 127 127
129 129 129
129 129 129
129 129 129
134 134 134
255 185 173
255 255 255
255 255 255
255 255 255
255 255 255
255 255 255
255 255 255
255 255 255
255 255 255
255 255 255
255 255 255
255 255 255
255 255 255
255 255 255
255 255 255
255 255 255
255 255 255
255 255 255
255 255 255
240 193 182
137 137 137
127 127 127
122 122 122
130 130 130
130 130 130
130 130 130
61 84 84
66 91 91
63 87 87
67 92 92
66 91 91
67 93 93
64 88 88
70 96 96
73 100 100
81 111 111
70 96 96
74 102 102
73 101 101
80 110 110
78 107 107
64 64 64

# y = 35
64 64 64
64 64 64
106 51 51
102 49 49
105 50 50
96 46 46
100 48 48
105 50 50
94 45 45
92 44 44
92 44 44
95 45 45
90 43 43
87 42 42
75 36 36
85 41 41
129 129 129
135 135 135
126 126 126
137 137 137
129 129 129
125 125 125
121 121 121
255 255 255
255 255 255
255 255 255
255 255 255
255 255 255
255 255 255
255 255 255
255 255 255
255 255 255
255 255 255
255 255 255
255 255 255
255 255 255
255 255 255
255 255 255
255 255 255
255 255 255
255 255 255
131 131 131
138 138 138
132 132 132
129 129 129
138 138 138
134 134 134
136 136 136
57 79 79
63 87 87
63 87 87
66 90 90
66 91 91
65 89 89
70 96 96
63 87 87
70 96 96
65 90 90
73 101 101
71 97 97
68 94 94
75 103 103
74 101 101
64 64 64

# y = 36
64 64 64
64 64 64
106 51 51
104 50 50
94 45 45
102 49 49
102 49 49
99 47 47
103 49 49
93 44 44
87 42 42
84 40 40
85 40 40
84 40 40
79 38 38
80 38 38
130 130 130
135 135 135
129 129 129
129 129 129
121 121 121
137 137 137
130 130 130
128 128 128
131 131 131
255 255 255
255 255 255
255 255 255
255 255 255
255 255 255
255 255 255
255 255 255
255 255 255
255 255 255
255 255 255
255 255 255
255 255 255
255 255 255
255 255 255
137 137 137
144 144 144
122 122 122
124 124 124
127 127 127
142 142 142
134 134 134
125 125 125
127 127 127
56 77 77
62 85 85
63 87 87
62 86 86
62 85 85
64 88 88
68 93 93
66 90 90
70 96 96
76 104 104
76 105 105
65 89 89
75 104 104
77 106 106
80 110 110
64 64 64

# y = 37
64 64 64
64 64 64
99 47 47
97 47 47
101 48 48
93 45 45
96 46 46
98 47 47
95 45 45
96 46 46
91 44 44
88 42 42
86 41 41
85 41 41
86 41 41
78 37 37
129 129 129
118 118 118
126 126 126
128 128 128
127 127 127
131 131 131
124 124 124
137 137 137
129 129 129
135 135 135
255 255 255
255 255 255
255 255 255
255 255 255
255 255 255
255 255 255
255 255 255
255 255 255
255 255 255
255 255 255
255 255 255
255 255 255
127 127 127
132 132 132
133 133 133
121 121 121
120 120 120
124 124 124
125 125 125
133 133 133
118 118 118
129 129 129
55 75 75
58 80 80
59 82 82
64 87 87
65 90 90
68 93 93
60 83 83
72 98 98
75 103 103
68 93 93
81 111 111
67 92 92
76 104 104
68 93 93
75 103 103
64 64 64

# y = 38
64 64 64
64 64 64
104 50 50
102 49 49
97 47 47
92 44 44
101 48 48
96 46 46
95 46 46
92 44 44
88 42 42
85 41 41
90 43 43
90 43 43
77 37 37
80 38 38
130 130 130
124 124 124
131 131 131
129 129 129
122 122 122
127 127 127
126 126 126
132 132 132
127 127 127
127 127 127
129 129 129
103 103 103
102 102 102
98 98 98
255 255 255
255 255 255
255 255 255
255 255 255
110 110 110
105 105 105
113 113 113
125 125 125
134 134 134
130 130 130
136 136 136
128 128 128
135 135 135
127 127 127
129 129 129
129 129 129
121 121 121
126 126 126
57 78 78
62 85 85
64 88 88
60 83 83
67 92 92
63 87 87
62 85 85
61 84 84
70 97 97
72 99 99
78 107 107
72 99 99
77 106 106
75 103 103
72 99 99
64 64 64

# y = 39
64 64 64
64 64 64
105 50 50
105 50 50
102 49 49
100 48 48
99 48 48
91 44 44
96 46 46
93 45 45
93 44 44
83 40 40
83 40 40
82 39 39
83 39 39
77 37 37
122 122 122
123 123 123
123 123 123
128 128 128
120 120 120
123 123 123
124 124 124
133 133 133
134 134 134
125 125 125
127 127 127
96 96 96
85 85 85
90 90 90
81 81 81
81 81 81
96 96 96
71 71 71
99 99 99
76 76 76
105 105 105
130 130 130
131 131 131
135 135 135
129 129 129
124 124 124
102 102 102
120 120 120
130 130 130
121 121 121
124 124 124
127 127 127
56 77 77
61 83 83
63 87 87
64 88 88
69 95 95
64 88 88
63 86 86
67 92 92
64 87 87
72 99 99
70 96 96
68 93 93
74 101 101
74 101 101
69 95 95
64 64 64

# y = 40
64 64 64
64 64 64
92 44 44
100 48 48
104 50 50
95 45 45
91 43 43
104 50 50
90 43 43
92 44 44
91 44 44
83 40 40
88 42 42
83 40 40
74 36 36
75 36 36
130 130 130
123 123 123
128 128 128
119 119 119
118 118 118
119 119 119
125 125 125
129 129 129
130 130 130
129 129 129
99 99 99
80 80 80
84 84 84
82 82 82
95 95 95
64 64 64
83 83 83
85 85 85
82 82 82
75 75 75
79 79 79
110 110 110
130 130 130
127 127 127
131 131 131
127 127 127
125 125 125
125 125 125
119 119 119
125 125 125
123 123 123
128 128 128
61 84 84
57 78 78
61 83 83
65 89 89
59 82 82
63 87 87
69 95 95
72 98 98
75 103 103
68 93 93
67 92 92
72 99 99
78 107 107
78 106 106
77 106 106
64 64 64

# y = 41
64 64 64
64 64 64
100 48 48
95 46 46
96 46 46
105 50 50
96 46 46
87 42 42
83 40 40
96 46 46
91 44 44
82 39 39
86 41 41
80 38 38
79 38 38
80 38 38
117 117 117
127 127 127
121 121 121
123 123 123
122 122 122
128 128 128
120 120 120
129 129 129
128 128 128
126 126 126
86 86 86
91 91 91
72 72 72
59 59 59
73 73 73
70 70 70
74 74 74
80 80 80
79 79 79
90 90 90
75 75 75
92 92 92
121 121 121
122 122 122
131 131 131
119 119 119
127 127 127
120 120 120
130 130 130
125 125 125
118 118 118
117 117 117
56 76 76
59 81 81
61 84 84
57 78 78
65 89 89
64 88 88
68 93 93
69 94 94
69 95 95
69 95 95
69 95 95
70 96 96
72 99 99
73 100 100
75 103 103
64 64 64

# y = 42
64 64 64
64 64 64
95 45 45
104 50 50
97 46 46
92 44 44
103 49 49
97 46 46
89 43 43
88 42 42
86 41 41
84 40 40
87 42 42
83 40 40
78 37 37
78 37 37
121 121 121
125 125 125
128 128 128
125 125 125
132 132 132
117 117 117
113 113 113
121 121 121
129 129 129
127 127 127
92 92 92
83 83 83
77 77 77
71 71 71
72 72 72
72 72 72
81 81 81
76 76 76
72 72 72
79 79 79
89 89 89
86 86 86
122 122 122
125 125 125
123 123 123
124 124 124
127 127 127
128 128 128
120 120 120
128 128 128
119 119 119
120 120 120
56 77 77
58 80 80
60 82 82
63 86 86
61 84 84
58 80 80
67 92 92
64 88 88
68 93 93
71 97 97
75 103 103
66 90 90
73 101 101
76 105 105
73 101 101
64 64 64

# y = 43
64 64 64
64 64 64
98 47 47
102 49 49
88 42 42
90 43 43
94 45 45
82 39 39
93 44 44
89 43 43
90 43 43
83 40 40
85 41 41
84 40 40
82 39 39
75 36 36
121 121 121
126 126 126
115 115 115
128 128 128
118 118 118
124 124 124
122 122 122
134 134 134
123 123 123
123 123 123
68 68 68
67 67 67
69 69 69
73 73 73
69 69 69
47 47 47
61 61 61
73 73 73
80 80 80
76 76 76
67 67 67
79 79 79
122 122 122
117 117 117
123 123 123
126 126 126
122 122 122
124 124 124
122 122 122
116 116 116
122 122 122
121 121 121
57 78 78
52 72 72
59 81 81
56 77 77
62 85 85
58 80 80
62 85 85
63 86 86
71 97 97
69 95 95
66 91 91
72 98 98
66 91 91
71 97 97
66 91 91
64 64 64

# y = 44
64 64 64
64 64 64
101 48 48
101 48 48
99 47 47
95 45 45
91 44 44
92 44 44
91 44 44
84 40 40
83 40 40
69 33 33
89 42 42
82 39 39
83 39 39
74 35 35
120 120 120
117 117 117
117 117 117
118 118 118
123 123 123
117 117 117
109 109 109
120 120 120
117 117 117
119 119 119
79 79 79
59 59 59
57 57 57
66 66 66
60 60 60
60 60 60
50 50 50
62 62 62
68 68 68
68 68 68
73 73 73
88 88 88
112 112 112
128 128 128
123 123 123
112 112 112
132 132 132
123 123 123
122 122 122
118 118 118
122 122 122
122 122 122
56 77 77
59 81 81
55 76 76
56 77 77
62 85 85
63 86 86
65 89 89
64 88 88
66 90 90
67 92 92
64 88 88
65 89 89
71 97 97
74 102 102
72 98 98
64 64 64

# y = 45
64 64 64
64 64 64
108 52 52
96 46 46
92 44 44
97 46 46
88 42 42
94 45 45
85 41 41
86 41 41
84 40 40
74 35 35
73 35 35
79 38 38
80 38 38
80 38 38
119 119 119
113 113 113
111 111 111
125 125 125
118 118 118
114 114 114
116 116 116
115 115 115
124 124 124
114 114 114
80 80 80
49 49 49
54 54 54
49 49 49
61 61 61
49 49 49
36 36 36
63 63 63
46 46 46
63 63 63
67 67 67
92 92 92
118 118 118
119 119 119
123 123 123
128 128 128
121 121 121
123 123 123
122 122 122
114 114 114
123 123 123
111 111 111
55 75 75
59 81 81
56 77 77
61 84 84
55 75 75
63 86 86
62 85 85
65 89 89
69 95 95
64 88 88
65 90 90
68 94 94
73 100 100
71 97 97
74 102 102
64 64 64

# y = 46
64 64 64
64 64 64
89 42 42
92 44 44
96 46 46
87 42 42
98 47 47
92 44 44
84 40 40
91 44 44
84 40 40
87 42 42
78 37 37
79 38 38
76 36 36
74 35 35
120 120 120
121 121 121
107 107 107
116 116 116
122 122 122
118 118 118
119 119 119
122 122 122
124 124 124
96 96 96
90 90 90
74 74 74
64 64 64
45 45 45
58 58 58
48 48 48
51 51 51
31 31 31
42 42 42
45 45 45
67 67 67
84 84 84
111 111 111
123 123 123
122 122 122
119 119 119
126 126 126
120 120 120
121 121 121
108 108 108
122 122 122
112 112 112
55 76 76
54 74 74
58 80 80
62 85 85
63 86 86
63 87 87
62 85 85
64 88 88
65 89 89
66 91 91
72 98 98
69 95 95
71 98 98
68 93 93
75 103 103
64 64 64

# y = 47
64 64 64
64 64 64
96 46 46
104 50 50
94 45 45
89 43 43
90 43 43
99 47 47
90 43 43
85 40 40
84 40 40
80 38 38
83 39 39
83 40 40
78 37 37
72 34 34
113 113 113
114 114 114
111 111 111
120 120 120
102 102 102
109 109 109
118 118 118
107 107 107
111 111 111
107 107 107
92 92 92
76 76 76
50 50 50
60 60 60
39 39 39
51 51 51
35 35 35
45 45 45
42 42 42
77 77 77
80 80 80
85 85 85
100 100 100
121 121 121
110 110 110
127 127 127
124 124 124
115 115 115
114 114 114
123 123 123
122 122 122
104 104 104
57 79 79
54 74 74
58 79 79
56 77 77
58 79 79
62 85 85
58 80 80
63 87 87
66 90 90
65 90 90
65 89 89
70 96 96
60 83 83
64 88 88
71 98 98
64 64 64

# y = 48
64 64 64
64 64 64
93 44 44
95 45 45
86 41 41
84 40 40
92 44 44
75 36 36
86 41 41
80 38 38
82 39 39
80 38 38
81 39 39
76 36 36
73 35 35
70 33 33
96 96 96
106 106 106
100 100 100
109 109 109
97 97 97
105 105 105
100 100 100
103 103 103
85 85 85
92 92 92
78 78 78
67 67 67
67 67 67
58 58 58
59 59 59
45 45 45
60 60 60
50 50 50
65 65 65
64 64 64
68 68 68
78 78 78
90 90 90
99 99 99
110 110 110
103 103 103
105 105 105
100 100 100
107 107 107
101 101 101
99 99 99
98 98 98
55 76 76
57 78 78
55 76 76
59 81 81
57 78 78
61 84 84
61 84 84
67 92 92
67 92 92
66 90 90
69 95 95
71 97 97
70 96 96
70 96 96
71 98 98
64 64 64

# y = 49
64 64 64
64 64 64
92 44 44
90 43 43
93 44 44
89 43 43
88 42 42
83 39 39
85 41 41
83 40 40
79 38 38
70 33 33
76 36 36
79 38 38
71 34 34
104 104 104
103 103 103
106 106 106
98 98 98
104 104 104
102 102 102
114 114 114
105 105 105
112 112 112
92 92 92
89 89 89
80 80 80
72 72 72
75 75 75
62 62 62
63 63 63
59 59 59
63 63 63
55 55 55
71 71 71
71 71 71
75 75 75
86 86 86
85 85 85
91 91 91
106 106 106
107 107 107
109 109 109
107 107 107
110 110 110
98 98 98
106 106 106
104 104 104
102 102 102
51 69 69
56 77 77
55 76 76
58 80 80
58 80 80
57 79 79
61 84 84
64 88 88
65 89 89
64 88 88
66 91 91
67 92 92
68 94 94
73 101 101
64 64 64

# y = 50
64 64 64
64 64 64
91 44 44
90 43 43
93 44 44
90 43 43
88 42 42
89 43 43
85 41 41
83 40 40
78 37 37
81 39 39
79 38 38
78 37 37
105 105 105
104 104 104
116 116 116
104 104 104
111 111 111
109 109 109
112 112 112
103 103 103
112 112 112
113 113 113
93 93 93
82 82 82
77 77 77
72 72 72
81 81 81
65 65 65
71 71 71
67 67 67
69 69 69
67 67 67
73 73 73
75 75 75
79 79 79
84 84 84
90 90 90
94 94 94
107 107 107
112 112 112
107 107 107
107 107 107
107 107 107
102 102 102
103 103 103
107 107 107
109 109 109
107 107 107
54 74 74
52 71 71
57 78 78
61 83 83
59 81 81
62 85 85
65 90 90
67 92 92
63 87 87
69 95 95
72 99 99
70 96 96
70 96 96
64 64 64

# y = 51
64 64 64
64 64 64
91 43 43
88 42 42
90 43 43
80 38 38
86 41 41
91 43 43
80 38 38
80 38 38
84 40 40
74 36 36
77 37 37
107 107 107
99 99 99
109 109 109
108 108 108
107 107 107
100 100 100
108 108 108
112 112 112
109 109 109
108 108 108
105 105 105
91 91 91
91 91 91
80 80 80
79 79 79
73 73 73
72 72 72
69 69 69
73 73 73
62 62 62
69 69 69
68 68 68
78 78 78
71 71 71
83 83 83
75 75 75
96 96 96
102 102 102
115 115 115
103 103 103
116 116 116
111 111 111
107 107 107
116 116 116
103 103 103
111 111 111
104 104 104
115 115 115
54 75 75
57 78 78
61 83 83
58 80 80
60 83 83
60 83 83
65 89 89
59 81 81
64 88 88
65 89 89
70 97 97
74 101 101
64 64 64

# y = 52
64 64 64
64 64 64
95 45 45
86 41 41
90 43 43
87 42 42
92 44 44
82 39 39
79 38 38
86 41 41
80 38 38
71 34 34
110 110 110
106 106 106
107 107 107
108 108 108
117 117 117
96 96 96
112 112 112
111 111 111
112 112 112
115 115 115
113 113 113
99 99 99
90 90 90
84 84 84
82 82 82
87 87 87
81 81 81
67 67 67
82 82 82
80 80 80
60 60 60
79 79 79
79 79 79
72 72 72
79 79 79
78 78 78
78 78 78
91 91 91
101 101 101
100 100 100
113 113 113
109 109 109
112 112 112
112 112 112
117 117 117
114 114 114
108 108 108
101 101 101
109 109 109
106 106 106
59 81 81
59 82 82
61 84 84
60 83 83
62 86 86
64 88 88
62 86 86
70 97 97
69 95 95
61 84 84
66 90 90
64 64 64

# y = 53
64 64 64
64 64 64
91 44 44
96 46 46
88 42 42
87 41 41
87 42 42
84 40 40
82 39 39
84 40 40
82 39 39
110 110 110
98 98 98
110 110 110
116 116 116
111 111 111
103 103 103
114 114 114
117 117 117
119 119 119
113 113 113
116 116 116
110 110 110
110 110 110
95 95 95
81 81 81
79 79 79
78 78 78
96 96 96
89 89 89
76 76 76
75 75 75
75 75 75
73 73 73
89 89 89
78 78 78
83 83 83
85 85 85
92 92 92
97 97 97
99 99 99
109 109 109
112 112 112
111 111 111
111 111 111
110 110 110
104 104 104
107 107 107
102 102 102
107 107 107
101 101 101
105 105 105
111 111 111
58 80 80
61 84 84
54 74 74
62 85 85
66 91 91
62 86 86
64 88 88
71 97 97
67 92 92
68 93 93
64 64 64

# y = 54
64 64 64
64 64 64
87 42 42
97 47 47
90 43 43
90 43 43
90 43 43
84 40 40
82 39 39
77 37 37
112 112 112
113 113 113
114 114 114
119 119 119
105 105 105
111 111 111
114 114 114
114 114 114
117 117 117
111 111 111
117 117 117
114 114 114
101 101 101
97 97 97
88 88 88
102 102 102
95 95 95
89 89 89
91 91 91
83 83 83
95 95 95
87 87 87
85 85 85
84 84 84
93 93 93
90 90 90
91 91 91
98 98 98
98 98 98
105 105 105
109 109 109
101 101 101
119 119 119
121 121 121
114 114 114
124 124 124
118 118 118
101 101 101
117 117 117
119 119 119
110 110 110
108 108 108
112 112 112
108 108 108
57 78 78
60 82 82
63 87 87
65 89 89
62 86 86
69 94 94
64 88 88
64 88 88
66 91 91
64 64 64

# y = 55
64 64 64
64 64 64
86 41 41
87 42 42
89 43 43
92 44 44
89 42 42
84 40 40
84 40 40
116 116 116
105 105 105
118 118 118
116 116 116
114 114 114
115 115 115
117 117 117
124 124 124
118 118 118
113 113 113
114 114 114
115 115 115
105 105 105
107 107 107
96 96 96
93 93 93
91 91 91
89 89 89
96 96 96
100 100 100
94 94 94
91 91 91
93 93 93
93 93 93
93 93 93
88 88 88
100 100 100
96 96 96
99 99 99
93 93 93
96 96 96
108 108 108
104 104 104
111 111 111
117 117 117
108 108 108
124 124 124
113 113 113
117 117 117
120 120 120
117 117 117
114 114 114
108 108 108
117 117 117
115 115 115
110 110 110
61 84 84
64 87 87
62 86 86
68 93 93
67 92 92
67 92 92
72 99 99
69 95 95
64 64 64

# y = 56
64 64 64
64 64 64
91 44 44
91 44 44
88 42 42
80 38 38
87 42 42
84 40 40
117 117 117
116 116 116
110 110 110
112 112 112
108 108 108
115 115 115
109 109 109
114 114 114
108 108 108
124 124 124
115 115 115
126 126 126
123 123 123
104 104 104
106 106 106
98 98 98
103 103 103
92 92 92
90 90 90
100 100 100
108 108 108
94 94 94
98 98 98
89 89 89
96 96 96
100 100 100
89 89 89
91 91 91
98 98 98
95 95 95
91 91 91
97 97 97
101 101 101
103 103 103
111 111 111
118 118 118
123 123 123
127 127 127
115 115 115
117 117 117
125 125 125
122 122 122
115 115 115
114 114 114
115 115 115
113 113 113
112 112 112
113 113 113
57 79 79
62 85 85
67 92 92
57 79 79
66 91 91
65 90 90
58 80 80
64 64 64

# y = 57
64 64 64
64 64 64
91 43 43
93 44 44
94 45 45
87 42 42
86 41 41
113 113 113
112 112 112
108 108 108
117 117 117
121 121 121
126 126 126
121 121 121
117 117 117
120 120 120
120 120 120
113 113 113
115 115 115
116 116 116
111 111 111
108 108 108
112 112 112
100 100 100
108 108 108
103 103 103
106 106 106
106 106 106
94 94 94
92 92 92
106 106 106
96 96 96
90 90 90
92 92 92
93 93 93
99 99 99
101 101 101
110 110 110
102 102 102
106 106 106
104 104 104
102 102 102
109 109 109
111 111 111
124 124 124
118 118 118
119 119 119
119 119 119
108 108 108
119 119 119
122 122 122
110 110 110
109 109 109
120 120 120
117 117 117
109 109 109
122 122 122
62 85 85
62 85 85
65 89 89
67 92 92
70 96 96
67 91 91
64 64 64

# y = 58
64 64 64
64 64 64
89 42 42
93 44 44
85 40 40
87 42 42
110 110 110
122 122 122
113 113 113
113 113 113
126 126 126
116 116 116
116 116 116
115 115 115
109 109 109
124 124 124
118 118 118
130 130 130
122 122 122
122 122 122
119 119 119
109 109 109
111 111 111
105 105 105
115 115 115
89 89 89
103 103 103
100 100 100
100 100 100
92 92 92
98 98 98
100 100 100
104 104 104
97 97 97
105 105 105
100 100 100
103 103 103
105 105 105
103 103 103
105 105 105
102 102 102
110 110 110
103 103 103
121 121 121
120 120 120
113 113 113
118 118 118
108 108 108
124 124 124
114 114 114
118 118 118
119 119 119
117 117 117
121 121 121
119 119 119
123 123 123
119 119 119
114 114 114
62 85 85
57 78 78
67 92 92
65 90 90
65 89 89
64 64 64

# y = 59
64 64 64
64 64 64
86 41 41
84 40 40
96 46 46
124 124 124
116 116 116
117 117 117
121 121 121
116 116 116
119 119 119
121 121 121
116 116 116
120 120 120
114 114 114
119 119 119
128 128 128
123 123 123
118 118 118
121 121 121
108 108 108
116 116 116
116 116 116
109 109 109
105 105 105
114 114 114
103 103 103
102 102 102
105 105 105
105 105 105
105 105 105
104 104 104
93 93 93
105 105 105
105 105 105
113 113 113
99 99 99
97 97 97
106 106 106
103 103 103
111 111 111
112 112 112
113 113 113
120 120 120
125 125 125
132 132 132
113 113 113
126 126 126
121 121 121
108 108 108
127 127 127
113 113 113
123 123 123
117 117 117
118 118 118
122 122 122
120 120 120
119 119 119
115 115 115
58 79 79
61 83 83
68 93 93
62 85 85
64 64 64

# y = 60
64 64 64
64 64 64
92 44 44
83 40 40
118 118 118
123 123 123
111 111 111
122 122 122
121 121 121
122 122 122
129 129 129
124 124 124
126 126 126
126 126 126
125 125 125
124 124 124
115 115 115
123 123 123
116 116 116
124 124 124
124 124 124
107 107 107
113 113 113
114 114 114
100 100 100
116 116 116
111 111 111
103 103 103
110 110 110
114 114 114
109 109 109
107 107 107
105 105 105
111 111 111
105 105 105
95 95 95
105 105 105
113 113 113
113 113 113
115 115 115
99 99 99
116 116 116
112 112 112
121 121 121
125 125 125
126 126 126
122 122 122
119 119 119
122 122 122
120 120 120
113 113 113
112 112 112
111 111 111
127 127 127
128 128 128
129 129 129
121 121 121
121 121 121
120 120 120
119 119 119
65 90 90
62 86 86
67 92 92
64 64 64

# y = 61
64 64 64
64 64 64
85 41 41
123 123 123
127 127 127
123 123 123
118 118 118
121 121 121
126 126 126
115 115 115
127 127 127
126 126 126
112 112 112
130 130 130
133 133 133
129 129 129
115 115 115
124 124 124
126 126 126
122 122 122
119 119 119
110 110 110
110 110 110
105 105 105
116 116 116
112 112 112
111 111 111
101 101 101
112 112 112
111 111 111
117 117 117
108 108 108
99 99 99
105 105 105
111 111 111
109 109 109
107 107 107
108 108 108
111 111 111
109 109 109
124 124 124
109 109 109
103 103 103
113 113 113
122 122 122
116 116 116
123 123 123
122 122 122
130 130 130
129 129 129
122 122 122
122 122 122
123 123 123
118 118 118
127 127 127
115 115 115
115 115 115
120 120 120
118 118 118
132 132 132
119 119 119
64 88 88
67 91 91
64 64 64

# y = 62
64 64 64
64 64 64
115 115 115
124 124 124
123 123 123
122 122 122
124 124 124
125 125 125
123 123 123
129 129 129
134 134 134
126 126 126
128 128 128
124 124 124
119 119 119
132 132 132
130 130 130
126 126 126
123 123 123
125 125 125
117 117 117
121 121 121
119 119 119
115 115 115
123 123 123
108 108 108
109 109 109
103 103 103
95 95 95
112 112 112
111 111 111
119 119 119
110 110 110
107 107 107
109 109 109
99 99 99
115 115 115
109 109 109
120 120 120
112 112 112
122 122 122
121 121 121
114 114 114
119 119 119
127 127 127
126 126 126
124 124 124
131 131 131
121 121 121
129 129 129
134 134 134
124 124 124
132 132 132
118 118 118
119 119 119
122 122 122
117 117 117
126 126 126
117 117 117
120 120 120
126 126 126
122 122 122
62 85 85
64 64 64

# y = 63
64 64 64
64 64 64
64 64 64
64 64 64
64 64 64
64 64 64
64 64 64
64 64 64
64 64 64
64 64 64
64 64 64
64 64 64
64 64 64
64 64 64
64 64 64
64 64 64
64 64 64
64 64 64
64 64 64
64 64 64
64 64 64
64 64 64
64 64 64
64 64 64
64 64 64
64 64 64
64 64 64
64 64 64
64 64 64
64 64 64
64 64 64
64 64 64
64 64 64
64 64 64
64 64 64
64 64 64
64 64 64
64 64 64
64 64 64
64 64 64
64 64 64
64 64 64
64 64 64
64 64 64
64 64 64
64 64 64
64 64 64
64 64 64
64 64 64
64 64 64
64 64 64
64 64 64
64 64 64
64 64 64
64 64 64
64 64 64
64 64 64
64 64 64
64 64 64
64 64 64
64 64 64
64 64 64
64 64 64
64 64 64
